<?xml version="1.0" encoding="UTF-8"?>
<svg width="83px" height="60px" viewBox="0 0 83 60" version="1.1" xmlns="http://www.w3.org/2000/svg" xmlns:xlink="http://www.w3.org/1999/xlink">
    <!-- Generator: Sketch 50.2 (55047) - http://www.bohemiancoding.com/sketch -->
    <title>Icn Delivery</title>
    <desc>Created with Sketch.</desc>
    <defs></defs>
    <g id="Exportable" stroke="none" stroke-width="1" fill="none" fill-rule="evenodd">
        <g id="Printer-Rental" transform="translate(-680.000000, -1729.000000)">
            <g id="Icn-Delivery" transform="translate(680.000000, 1717.000000)">
                <rect id="Rectangle-14-Copy-7" x="0" y="0" width="82" height="82"></rect>
                <polyline id="Path-6-Copy-2" stroke="#000000" stroke-width="4" fill="#FFFFFF" points="56 32 65.4458403 32 69.5939798 45.2241874 80.2131318 45.2241874 80.2131318 59.9146087 56.3658214 59.9146087"></polyline>
                <path d="M8,14 L50,14 C53.3137085,14 56,16.6862915 56,20 L56,60 L2,60 L2,20 C2,16.6862915 4.6862915,14 8,14 Z" id="Rectangle-26-Copy-2" stroke="#000000" stroke-width="4" fill="#D64E4E"></path>
                <path d="M27.9737024,25 L47,25" id="Line-7-Copy-6" stroke="#FFFFFF" stroke-width="4" stroke-linecap="round" stroke-linejoin="round"></path>
                <path d="M33.9615952,33 L47,33" id="Line-7-Copy-7" stroke="#FFFFFF" stroke-width="4" stroke-linecap="round" stroke-linejoin="round"></path>
                <path d="M39.9289322,41 L47,41" id="Line-7-Copy-8" stroke="#FFFFFF" stroke-width="4" stroke-linecap="round" stroke-linejoin="round"></path>
                <circle id="Oval-9-Copy-10" fill="#000000" cx="65" cy="63" r="9"></circle>
                <circle id="Oval-9-Copy-12" fill="#000000" cx="20" cy="63" r="9"></circle>
                <circle id="Oval-9-Copy-11" fill="#F7F7F7" cx="65" cy="63" r="3"></circle>
                <circle id="Oval-9-Copy-13" fill="#F7F7F7" cx="20" cy="63" r="3"></circle>
            </g>
        </g>
    </g>
</svg>