<?xml version="1.0" encoding="UTF-8"?>
<svg width="35px" height="41px" viewBox="0 0 35 41" version="1.1" xmlns="http://www.w3.org/2000/svg" xmlns:xlink="http://www.w3.org/1999/xlink">
    <!-- Generator: Sketch 50.2 (55047) - http://www.bohemiancoding.com/sketch -->
    <title>Icon Ink</title>
    <desc>Created with Sketch.</desc>
    <defs></defs>
    <g id="Exportable" stroke="none" stroke-width="1" fill="none" fill-rule="evenodd">
        <g id="Home-1440" transform="translate(-513.000000, -913.000000)">
            <g id="Icon-Ink" transform="translate(508.000000, 913.000000)">
                <rect id="Rectangle-14" x="0" y="0" width="41" height="41"></rect>
                <rect id="Rectangle-10" stroke="#000000" stroke-width="2" fill="#FFFFFF" x="11" y="1" width="11" height="11" rx="2"></rect>
                <rect id="Rectangle-9" stroke="#000000" stroke-width="2" fill="#FFFFFF" x="6" y="10" width="21" height="30" rx="4"></rect>
                <rect id="Rectangle-11" stroke="#000000" stroke-width="2" fill="#D64E4E" x="6" y="15" width="21" height="19"></rect>
                <path d="M17.4,30.6666667 C19.2777681,30.6666667 20.8,29.1444348 20.8,27.2666667 C20.8,26.0855808 20.2829785,23.5860474 19.5679619,21.5539824 C18.7910335,19.3459653 17.8740259,18 17.4,18 C16.9259741,18 16.0089665,19.3459653 15.2320381,21.5539824 C14.5170215,23.5860474 14,26.0855808 14,27.2666667 C14,29.1444348 15.5222319,30.6666667 17.4,30.6666667 Z" id="Oval-3" stroke="#000000" stroke-width="2" fill="#FFFFFF"></path>
                <path d="M34.5,38.6666667 C36.8748244,38.6666667 38.8,36.7414911 38.8,34.3666667 C38.8,30.6263681 36.1165327,23 34.5,23 C32.8834673,23 30.2,30.6263681 30.2,34.3666667 C30.2,36.7414911 32.1251756,38.6666667 34.5,38.6666667 Z" id="Oval-3-Copy" stroke="#000000" stroke-width="2" fill="#D64E4E"></path>
            </g>
        </g>
    </g>
</svg>