<?xml version="1.0" encoding="UTF-8"?>
<svg width="67px" height="71px" viewBox="0 0 67 71" version="1.1" xmlns="http://www.w3.org/2000/svg" xmlns:xlink="http://www.w3.org/1999/xlink">
    <!-- Generator: Sketch 50.2 (55047) - http://www.bohemiancoding.com/sketch -->
    <title>Icn Flexible</title>
    <desc>Created with Sketch.</desc>
    <defs></defs>
    <g id="Exportable" stroke="none" stroke-width="1" fill="none" fill-rule="evenodd">
        <g id="Printer-Rental" transform="translate(-1049.000000, -1726.000000)">
            <g id="Icn-Flexible" transform="translate(1039.000000, 1720.000000)">
                <rect id="Rectangle-14-Copy-8" x="0" y="0" width="82" height="82"></rect>
                <polygon id="Path-7" stroke="#000000" stroke-width="4" fill="#F7F7F7" stroke-linecap="round" stroke-linejoin="round" points="42.5955184 8.88216584 32.1882724 20.9745809 37.4854154 20.9745809 37.4854154 42.7334396 47.454034 42.7334396 47.454034 20.9745809 53.2885807 20.9745809"></polygon>
                <path d="M32.0002997,74.286975 C31.9375557,47.5038471 41.7269303,34.1122831 61.3684235,34.1122831 L61.3684235,28 L74.3413234,38.03525 L61.3684235,46.7431677 L61.3684235,41.5078786 C47.7213026,42.6312645 40.8977422,53.55763 40.8977422,74.286975 C40.8977422,74.5854314 37.931928,74.5854314 32.0002997,74.286975 Z" id="Path-6" stroke="#000000" stroke-width="4" fill="#D64E4E" stroke-linecap="round" stroke-linejoin="round"></path>
                <path d="M12.0002997,74.286975 C11.9375557,47.5038471 21.7269303,34.1122831 41.3684235,34.1122831 L41.3684235,28 L54.3413234,38.03525 L41.3684235,46.7431677 L41.3684235,41.5078786 C27.7213026,42.6312645 20.8977422,53.55763 20.8977422,74.286975 C20.8977422,74.5854314 17.931928,74.5854314 12.0002997,74.286975 Z" id="Path-6-Copy-3" stroke="#000000" stroke-width="4" fill="#F7F7F7" stroke-linecap="round" stroke-linejoin="round" transform="translate(33.170662, 51.255409) scale(-1, 1) translate(-33.170662, -51.255409) "></path>
            </g>
        </g>
    </g>
</svg>