<?xml version="1.0" encoding="UTF-8"?>
<svg width="88px" height="37px" viewBox="0 0 88 37" version="1.1" xmlns="http://www.w3.org/2000/svg" xmlns:xlink="http://www.w3.org/1999/xlink">
    <!-- Generator: Sketch 48.2 (47327) - http://www.bohemiancoding.com/sketch -->
    <title>Rectangle</title>
    <desc>Created with Sketch.</desc>
    <defs>
        <path d="M10.4025727,18.5620389 L0.790694364,17.5446009 C1.15309776,15.8571344 1.67610391,14.5295152 2.35972849,13.5617036 C3.04335308,12.5938919 4.02759299,11.7543072 5.31247776,11.0429242 C6.23495913,10.5300667 7.50335198,10.1330218 9.11769438,9.85177733 C10.7320368,9.57053291 12.478136,9.42991281 14.3560445,9.42991281 C17.3705819,9.42991281 19.7920592,9.59948411 21.620549,9.93863179 C23.4490389,10.2777795 24.9727576,10.9850159 26.1917508,12.0603622 C27.0483406,12.8048327 27.7237187,13.8594835 28.2179051,15.2243461 C28.7120916,16.5892087 28.9591811,17.8920126 28.9591811,19.1327968 L28.9591811,30.7712944 C28.9591811,32.0120786 29.0374261,32.9840117 29.1939185,33.6871227 C29.3504108,34.3902338 29.692218,35.2877209 30.2193502,36.379611 L20.7804362,36.379611 C20.40156,35.7013156 20.1544705,35.18433 20.0391603,34.8286385 C19.9238501,34.472947 19.8085417,33.9146025 19.6932315,33.1535882 C18.375401,34.42746 17.0658265,35.3373547 15.7644689,35.8832998 C13.9853977,36.6112265 11.918082,36.9751844 9.56245996,36.9751844 C6.43261246,36.9751844 4.05643493,36.2472686 2.43385609,34.7914152 C0.81127725,33.3355617 0,31.5405875 0,29.4064386 C0,27.4046401 0.584778525,25.7585578 1.75435312,24.4681422 C2.92392771,23.1777266 5.08184284,22.2182012 8.22816322,21.5895372 C12.0004531,20.8285229 14.4466393,20.2949937 15.5667953,19.9889336 C16.6869512,19.6828735 17.8729809,19.2816926 19.1249199,18.7853789 C19.1249199,17.5445947 18.8695941,16.6760588 18.3589348,16.1797451 C17.8482754,15.6834315 16.9505168,15.4352783 15.6656321,15.4352783 C14.0183439,15.4352783 12.7828963,15.699975 11.9592523,16.2293763 C11.3168099,16.642971 10.7979219,17.4205174 10.4025727,18.5620389 Z M19.1249199,23.8725687 C17.7411979,24.3688824 16.2998423,24.8072863 14.8008101,25.1877934 C12.7581728,25.7337385 11.465071,26.2714036 10.9214659,26.8008048 C10.3613879,27.3467499 10.0813531,27.9671327 10.0813531,28.6619718 C10.0813531,29.4560737 10.3572698,30.1054077 10.9091113,30.6099933 C11.4609528,31.1145789 12.2722301,31.3668679 13.3429674,31.3668679 C14.4631233,31.3668679 15.5050175,31.0938994 16.468681,30.5479544 C17.4323446,30.0020093 18.115959,29.3361318 18.5195446,28.5503018 C18.9231302,27.7644718 19.1249199,26.7429081 19.1249199,25.4855801 L19.1249199,23.8725687 Z M30.4470044,29.0838364 L40.4295208,28.1408451 C40.8413428,29.3319979 41.417885,30.1839903 42.1591647,30.6968478 C42.9004444,31.2097052 43.8888024,31.4661301 45.1242685,31.4661301 C46.4750448,31.4661301 47.5210571,31.1766181 48.2623368,30.5975855 C48.8388877,30.167447 49.1271588,29.6297819 49.1271588,28.9845741 C49.1271588,28.2566474 48.7482882,27.694167 47.9905356,27.297116 C47.4469305,27.0158716 46.005575,26.6684572 43.6664258,26.2548625 C40.1741749,25.6427423 37.7485795,25.076126 36.3895667,24.5549966 C35.030554,24.0338673 33.8857059,23.1529237 32.9549881,21.9121395 C32.0242703,20.6713553 31.5589184,19.2568825 31.5589184,17.6686787 C31.5589184,15.9315809 32.0613337,14.4343904 33.0661795,13.1770624 C34.0710253,11.9197344 35.4547266,10.9808884 37.2173249,10.3604963 C38.9799232,9.74010421 41.3437463,9.42991281 44.308865,9.42991281 C47.4387125,9.42991281 49.7489995,9.66979416 51.2397953,10.1495641 C52.7305911,10.6293339 53.974275,11.3737933 54.9708843,12.3829645 C55.9674936,13.3921356 56.7952435,14.7569778 57.4541588,16.4775319 L47.916408,17.4205231 C47.6693148,16.5767899 47.2574989,15.9564071 46.6809481,15.5593561 C45.8902498,15.0299549 44.934837,14.7652582 43.814681,14.7652582 C42.6780522,14.7652582 41.8503023,14.9679166 41.3314065,15.3732394 C40.8125108,15.7785623 40.5530668,16.2707326 40.5530668,16.8497653 C40.5530668,17.494973 40.8825194,17.9830075 41.5414347,18.3138833 C42.20035,18.6447591 43.6334692,18.9425428 45.8408353,19.2072435 C49.1848303,19.5877506 51.6721981,20.1171439 53.3030134,20.7954393 C54.9338287,21.4737347 56.1816307,22.4415318 57.046457,23.6988598 C57.9112833,24.9561878 58.3436899,26.3375735 58.3436899,27.8430584 C58.3436899,29.365087 57.8865743,30.8457339 56.9723294,32.2850436 C56.0580845,33.7243533 54.616729,34.8699935 52.6482196,35.7219987 C50.6797103,36.5740038 47.998789,37 44.6053754,37 C39.8117668,37 36.3978133,36.313443 34.3634124,34.9403085 C32.3290116,33.567174 31.0235553,31.6150361 30.4470044,29.0838364 Z M88,0 L88,36.379611 L78.5857952,36.379611 L78.5857952,32.4835681 C77.2679647,34.137947 76.0654624,35.254636 74.9782522,35.8336687 C73.5286386,36.594683 71.9143204,36.9751844 70.1352492,36.9751844 C66.5606339,36.9751844 63.8302947,35.6103423 61.9441498,32.880617 C60.0580048,30.1508918 59.1149465,26.8339118 59.1149465,22.9295775 C59.1149465,18.5620171 60.1568407,15.2202217 62.2406602,12.9040912 C64.3244797,10.5879607 66.9724557,9.42991281 70.1846676,9.42991281 C71.7495914,9.42991281 73.1703561,9.69460947 74.4470044,10.2240107 C75.7236527,10.753412 76.8561464,11.547502 77.8445193,12.6063045 L77.8445193,0 L88,0 Z M77.9186469,23.1281019 C77.9186469,21.0601283 77.482122,19.517443 76.6090593,18.5 C75.7359966,17.482557 74.6323301,16.9738431 73.2980267,16.9738431 C72.1284521,16.9738431 71.1483303,17.4618775 70.357632,18.4379611 C69.5669337,19.4140447 69.1715905,21.0518553 69.1715905,23.351442 C69.1715905,25.5021346 69.5792882,27.0779069 70.3946958,28.0788062 C71.2101034,29.0797054 72.2190523,29.5801476 73.4215727,29.5801476 C74.7064574,29.5801476 75.7771787,29.0755695 76.6337685,28.0663984 C77.4903584,27.0572272 77.9186469,25.4111449 77.9186469,23.1281019 Z" id="path-1"></path>
    </defs>
    <g id="Home" stroke="none" stroke-width="1" fill="none" fill-rule="evenodd" transform="translate(-97.000000, -47.000000)">
        <g id="Rectangle" transform="translate(97.000000, 47.000000)">
            <mask id="mask-2" fill="white">
                <use xlink:href="#path-1"></use>
            </mask>
            <use id="Mask" fill="#FF4545" xlink:href="#path-1"></use>
            <rect fill="#FFFFFF" mask="url(#mask-2)" x="78" y="5" width="12" height="1"></rect>
        </g>
    </g>
</svg>