<?xml version="1.0" encoding="UTF-8"?>
<svg width="83px" height="37px" viewBox="0 0 83 37" version="1.1" xmlns="http://www.w3.org/2000/svg" xmlns:xlink="http://www.w3.org/1999/xlink">
    <!-- Generator: Sketch 50.2 (55047) - http://www.bohemiancoding.com/sketch -->
    <title>Rectangle</title>
    <desc>Created with Sketch.</desc>
    <defs>
        <path d="M54.8953071,28.9696078 C54.71203,30.0722755 54.2881162,31.1529076 53.6235607,32.2115212 C52.7059299,33.6732746 51.2592363,34.8367794 49.2834367,35.7020702 C47.307637,36.5673611 44.616787,37 41.210806,37 C36.3994445,37 32.9728475,36.3027372 30.9309123,34.9081908 C30.1323767,34.3628283 29.4457346,33.7275356 28.8709835,33.0023091 C28.9020571,33.2416396 28.9390664,33.4600889 28.9820114,33.6576577 C29.1373679,34.3723759 29.476694,35.2846791 30,36.3945946 L20.6295993,36.3945946 C20.2534732,35.7051017 20.0081772,35.1795814 19.893704,34.818018 C19.7792308,34.4564546 19.6647594,33.8888928 19.5502862,33.1153153 C18.2420213,34.4102167 16.9419525,35.3351324 15.6500409,35.8900901 C13.8838832,36.6300337 11.8315734,37 9.49304988,37 C6.38592069,37 4.02699088,36.2600675 2.4161897,34.7801802 C0.805388512,33.3002929 0,31.4756865 0,29.3063063 C0,27.2714613 0.580533851,25.5982048 1.74161897,24.2864865 C2.90270409,22.9747682 5.04495576,21.9994026 8.16843827,21.3603604 C11.9133466,20.5867829 14.3417769,20.044446 15.4538021,19.7333333 C16.5658273,19.4222207 17.7432481,19.0144169 18.9860998,18.5099099 C18.9860998,17.2486423 18.7326272,16.3657683 18.2256746,15.8612613 C17.7187219,15.3567542 16.8274798,15.1045045 15.5519215,15.1045045 C13.9165904,15.1045045 12.6901104,15.3735709 11.8724448,15.9117117 C11.2346657,16.3321342 10.7195441,17.1225167 10.3270646,18.2828829 L0.784955029,17.2486486 C1.14472788,15.5333248 1.66393774,14.1837887 2.34260016,13.2 C3.02126259,12.2162113 3.9983583,11.3627664 5.2739166,10.6396396 C6.18970204,10.1183157 7.44888814,9.71471614 9.05151267,9.42882883 C10.6541372,9.14294151 12.3875622,9 14.2518397,9 C17.2444957,9 19.6483965,9.17237065 21.4636141,9.51711712 C23.2788316,9.86186359 24.7914903,10.5807753 26.0016353,11.6738739 C26.8520075,12.4306344 27.5224832,13.5026958 28.0130826,14.8900901 C28.1111404,15.1673935 28.1993985,15.4421767 28.2778569,15.7144401 C28.499832,14.6344959 28.9501698,13.6648807 29.6288751,12.8055806 C30.6374423,11.5286465 32.0262681,10.5751607 33.7953942,9.94509451 C35.5645202,9.31502835 37.9370976,9 40.9131975,9 C44.0546363,9 46.3734794,9.24362193 47.8697963,9.73087309 C49.3661132,10.2181242 50.614403,10.9741923 51.6147033,11.9990999 C52.6150035,13.0240075 53.445819,14.4101323 54.1071745,16.1575158 L44.534101,17.1152115 C44.2860926,16.2583215 43.8727516,15.6282648 43.2940655,15.2250225 C42.5004389,14.687366 41.5414878,14.4185419 40.4171833,14.4185419 C39.276345,14.4185419 38.4455296,14.6243604 37.9247121,15.0360036 C37.4038947,15.4476468 37.1434898,15.9474918 37.1434898,16.5355536 C37.1434898,17.1908224 37.4741626,17.686467 38.1355182,18.0225023 C38.7968737,18.3585375 40.2353004,18.6609648 42.4508415,18.929793 C45.8072208,19.3162336 48.3038005,19.8538819 49.9406554,20.5427543 C51.5775104,21.2316266 52.8299337,22.2145151 53.6979628,23.4914491 C53.8145541,23.6629634 53.9233151,23.8367507 54.0242459,24.0128111 C54.008082,23.6618798 54,23.3059316 54,22.9449664 C54,18.5744748 55.0460403,15.2304366 57.1381523,12.9127517 C59.2302642,10.5950667 61.8887777,9.43624161 65.1137725,9.43624161 C66.6849237,9.43624161 68.1113423,9.70111592 69.393071,10.2308725 C70.6747997,10.760629 71.8118,11.555252 72.8041061,12.6147651 L72.8041061,0 L83,0 L83,36.4040268 L73.5483319,36.4040268 L73.5483319,32.5053691 C72.2252571,34.1608584 71.0179695,35.2782969 69.9264328,35.8577181 C68.4710506,36.6192432 66.8503083,37 65.0641574,37 C61.4753171,37 58.7341127,35.6342418 56.8404619,32.9026846 C56.0099558,31.7046944 55.3615717,30.3936716 54.8953071,28.9696078 Z M28.7489779,20.3803372 L28.7489779,28.7932229 L37.0194863,28.0027003 C37.4328335,29.2124273 38.0115109,30.0777052 38.7555359,30.5985599 C39.4995609,31.1194145 40.4915793,31.379838 41.7316209,31.379838 C43.0873998,31.379838 44.1372859,31.0858115 44.8813109,30.4977498 C45.459997,30.0609039 45.7493357,29.5148548 45.7493357,28.859586 C45.7493357,28.1203083 45.369062,27.5490569 44.6085031,27.1458146 C44.0628848,26.8601846 42.6161912,26.5073528 40.2683791,26.0873087 C36.7631948,25.4656435 34.3286162,24.8901917 32.9645704,24.3609361 C31.6005246,23.8316805 30.4514366,22.937 29.5172719,21.6768677 C29.2109505,21.2636584 28.9548527,20.8314821 28.7489779,20.3803372 Z M19,24 C17.6229439,24.4635785 16.188532,24.8730667 14.6967213,25.2284768 C12.6639243,25.7384131 11.3770519,26.2406156 10.8360656,26.7350993 C10.2786857,27.2450357 10,27.8245001 10,28.4735099 C10,29.2152355 10.2745874,29.8217416 10.8237705,30.2930464 C11.3729536,30.7643511 12.1803225,31 13.2459016,31 C14.3606613,31 15.3975362,30.7450357 16.3565574,30.2350993 C17.3155786,29.725163 17.9958996,29.1032046 18.397541,28.3692053 C18.7991823,27.635206 19,26.6810213 19,25.5066225 L19,24 Z M73,23.3464567 C73,21.2139001 72.5508519,19.6230367 71.6525424,18.5738189 C70.7542328,17.5246011 69.6186509,17 68.2457627,17 C67.0423669,17 66.0339024,17.5032758 65.220339,18.5098425 C64.4067756,19.5164092 64,21.2053687 64,23.5767717 C64,25.7946305 64.4194873,27.4196143 65.2584746,28.4517717 C66.0974618,29.483929 67.135587,30 68.3728814,30 C69.6949219,30 70.7966058,29.479664 71.6779661,28.4389764 C72.5593264,27.3982888 73,25.7007992 73,23.3464567 Z" id="path-1"></path>
    </defs>
    <g id="Exportable" stroke="none" stroke-width="1" fill="none" fill-rule="evenodd">
        <g id="Home-Mobile" transform="translate(-26.000000, -43.000000)">
            <g id="Rectangle" transform="translate(26.000000, 43.000000)">
                <mask id="mask-2" fill="white">
                    <use xlink:href="#path-1"></use>
                </mask>
                <use id="Mask" fill="#FF4545" xlink:href="#path-1"></use>
                <rect fill="#FFFFFF" mask="url(#mask-2)" x="73" y="5" width="12" height="1"></rect>
            </g>
        </g>
    </g>
</svg>