<?xml version="1.0" encoding="UTF-8"?>
<svg width="603px" height="549px" viewBox="0 0 603 549" version="1.1" xmlns="http://www.w3.org/2000/svg" xmlns:xlink="http://www.w3.org/1999/xlink">
    <!-- Generator: Sketch 48.2 (47327) - http://www.bohemiancoding.com/sketch -->
    <title>Printer People</title>
    <desc>Created with Sketch.</desc>
    <defs>
        <polygon id="path-1" points="0.405127289 0.82093617 40.7644275 0.82093617 40.7644275 37.8157277 0.405127289 37.8157277"></polygon>
        <polygon id="path-3" points="0.154159563 0.583812413 21.4347 0.583812413 21.4347 71.2077596 0.154159563 71.2077596"></polygon>
        <polygon id="path-5" points="0.597307087 51.7814 51.4816535 76.9208 140.251701 25.8093 89.3673543 0.6677"></polygon>
        <path d="M0.217325397,51.8025789 L45.9152302,81.8392105 C48.8871825,83.7922105 52.706373,83.8972105 55.7798175,82.1088947 L138.970214,33.6707368 L88.422754,0.446526316 L0.217325397,51.8025789 Z" id="path-7"></path>
        <path d="M1.82110976,51.2746531 C1.77560976,52.2367347 1.40717073,52.9122857 0.836756098,53.2417959 L89.5684146,2.03657143 C90.1388293,1.70706122 90.5072683,1.03040816 90.5516585,0.0672244898 L1.82110976,51.2746531 Z" id="path-9"></path>
        <polygon id="path-11" points="0.215034637 0.725035135 109.146007 0.725035135 109.146007 68.7027027 0.215034637 68.7027027"></polygon>
        <path d="M8.91667857,5.43046875 C-2.88325,12.1614062 -2.94635714,23.078125 8.77828571,29.8079687 C20.5018214,36.5389062 39.5778929,36.5389062 51.3800357,29.8090625 C63.1866071,23.0748438 63.2486071,12.1592187 51.5239643,5.4271875 C45.6638571,2.06171875 37.9636786,0.37953125 30.25575,0.3784375 C22.5433929,0.3784375 14.8221786,2.0628125 8.91667857,5.43046875" id="path-13"></path>
        <path d="M0.579157895,38.8667143 C0.579157895,42.8796667 2.72226316,45.0559048 6.40389474,45.0559048 C19.1122105,45.0559048 41.9027368,21.0351429 41.9027368,7.1442381 C41.9027368,3.13019048 39.7596316,0.955047619 36.078,0.955047619 C23.4061579,0.955047619 0.579157895,24.9648571 0.579157895,38.8667143 M2.56642105,37.3399524 C2.56642105,24.8137143 23.1408947,3.07542857 34.65,3.07542857 C37.9779474,3.07542857 39.9143684,5.04247619 39.9143684,8.66990476 C39.9143684,9.91409524 39.6866842,11.3532381 39.2103158,12.9741905 C35.2811053,26.335 17.7173684,42.9333333 7.83078947,42.9333333 C4.50394737,42.9333333 2.56642105,40.967381 2.56642105,37.3399524" id="path-15"></path>
        <path d="M0.12544,17.9911538 C1.57472,24.1547692 7.11312,28.7501538 13.74352,28.7501538 C21.476,28.7501538 27.7424,22.5073462 27.7424,14.8089615 C27.7424,7.70284615 22.40224,1.85153846 15.50304,0.988230769 C9.66672,5.36946154 3.88416,11.7238077 0.12544,17.9911538" id="path-17"></path>
    </defs>
    <g id="Desktop" stroke="none" stroke-width="1" fill="none" fill-rule="evenodd" transform="translate(-747.000000, -151.000000)">
        <g id="Printer-People" transform="translate(747.000000, 151.000000)">
            <g id="Group-119" transform="translate(72.000000, 0.000000)">
                <path d="M369.386942,235.558119 L413.445561,120.694545 C413.445561,120.694545 419.386123,104.355481 408.990692,97.9196511 L398.594154,91.4827149 L376.813198,82.5719064 L362.951886,89.0077362 L329.288698,70.1936936 L327.308511,53.8557362 L293.150829,33.0612681 C293.150829,33.0612681 280.774104,36.5264596 275.329142,45.9329277 L269.884179,55.3405021 L234.240804,170.205183 L369.386942,235.558119 Z" id="Fill-1" fill="#76787A"></path>
                <path d="M121.341686,318.215991 C121.341686,321.392417 112.460711,322.583991 106.142918,321.537353 C99.8240175,320.490715 95.8890863,316.554204 93.6511425,313.558119 C91.3755863,310.560928 81.77223,307.09463 81.77223,304.676077 L81.77223,297.562034 L81.77223,290.522119 L97.5495675,289.618204 C97.5495675,289.618204 101.267674,294.456417 101.556405,296.40697 C101.809736,298.356417 121.341686,315.073864 121.341686,318.215991" id="Fill-3" fill="#F0626D"></path>
                <path d="M66.71838,348.004026 C62.2767863,347.8956 53.6845425,345.440536 52.3138988,339.879855 C51.4100925,336.196706 51.30168,325.400621 51.30168,318.53994 C51.30168,315.073643 51.3746925,312.655089 51.3746925,312.655089 L68.09013,315.832621 C68.09013,315.832621 68.7748988,318.829813 69.678705,322.801728 C71.050455,328.795004 72.9277613,336.882664 73.6501425,339.879855 C74.8415738,344.863004 71.8447425,348.148962 66.71838,348.004026" id="Fill-5" fill="#F0626D"></path>
                <path d="M101.556626,296.407081 C101.556626,296.407081 95.56407,299.693038 92.639145,300.920017 C89.7153263,302.146996 81.7724513,297.562145 81.7724513,297.562145 L81.7724513,290.52223 L97.5497888,289.618315 C97.5497888,289.618315 101.267895,294.456528 101.556626,296.407081" id="Fill-7" fill="#EED7B9"></path>
                <path d="M69.1641881,320.541166 C68.6044256,321.399719 66.5390569,320.013421 63.1329131,320.505762 C58.8815944,321.117591 54.7309444,323.270613 53.2518881,321.898698 C52.7098256,321.393081 51.9885506,320.021166 51.3026756,318.539719 C51.3026756,315.074528 51.3745819,312.654868 51.3745819,312.654868 L68.0900194,315.8324 C68.0900194,315.8324 68.2614881,316.569251 69.1641881,320.541166" id="Fill-9" fill="#EED7B9"></path>
                <path d="M71.3183887,38.8834979 C72.5153512,42.0012851 70.0329262,54.0365191 70.8604013,56.8954128 C71.6878763,59.7543064 79.81107,67.5775404 87.2572387,64.9454553 C94.7045138,62.3122638 94.8538575,53.4689447 94.4788388,46.4943064 C94.1016075,39.5185617 71.3183887,38.8834979 71.3183887,38.8834979" id="Fill-11" fill="#E8C8A1"></path>
                <path d="M112.719574,99.6978298 C112.719574,99.6978298 123.28758,130.810426 123.876105,132.870511 C124.465736,134.931702 122.630468,137.436553 122.035305,140.714766 C121.440143,143.992979 123.542018,148.620979 124.757786,149.101149 C125.971343,149.582426 126.099668,144.292809 126.825368,143.877915 C127.552174,143.463021 128.994724,146.563106 129.779055,148.841149 C130.563386,151.120298 130.826674,157.548383 132.913061,157.250766 C134.998343,156.952043 138.603611,147.137319 138.445418,143.279362 C138.286117,139.421404 132.717255,133.257745 131.587774,130.432043 C130.457186,127.607447 126.838643,90.0590213 126.838643,90.0590213 C126.838643,90.0590213 121.18128,78.9144255 112.329068,84.3124681 C103.477961,89.711617 112.719574,99.6978298 112.719574,99.6978298" id="Fill-13" fill="#EED7B9"></path>
                <path d="M107.71335,48.7630553 C113.892863,58.4582894 124.450913,86.0813532 124.450913,86.0813532 C124.450913,86.0813532 121.139906,90.8266298 116.891906,93.6423745 C112.643906,96.4581191 110.460169,96.5765021 110.460169,96.5765021 C110.460169,96.5765021 98.2770375,70.9615234 96.5833687,61.5970979 C94.8919125,52.2326723 103.272862,41.7972681 107.71335,48.7630553" id="Fill-15" fill="#BA4E5B"></path>
                <path d="M123.495776,83.6217532 C123.495776,83.6217532 119.674789,88.5650723 116.967795,91.0477957 C114.258589,93.5294128 109.552601,94.6380085 109.552601,94.6380085 C109.552601,94.6380085 109.610126,96.1626043 110.406626,98.6442213 C111.203126,101.126945 112.480845,101.427881 112.480845,101.427881 C112.480845,101.427881 115.838314,101.051711 120.126139,97.0643064 C124.412858,93.0780085 126.519157,90.8220936 126.820057,89.1669447 C127.120957,87.5117957 123.495776,83.6217532 123.495776,83.6217532" id="Fill-17" fill="#BA4E5B"></path>
                <path d="M109.294956,153.208264 C109.294956,153.208264 107.752843,209.411413 107.752843,217.535583 C107.752843,225.658647 104.150893,295.786732 104.150893,295.786732 C104.150893,295.786732 96.6294994,301.203583 88.8060994,299.697796 C80.9838056,298.194221 79.1784056,295.18486 79.1784056,295.18486 C79.1784056,295.18486 77.7048806,241.096009 79.2093806,236.856349 C80.7138806,232.616689 80.1120806,224.192689 80.7138806,216.669285 C81.3156806,209.148094 80.7138806,175.448774 80.7138806,175.448774 C80.7138806,175.448774 77.1030806,151.075157 81.6154744,147.164094 C86.1300806,143.251923 109.294956,153.208264 109.294956,153.208264" id="Fill-19" fill="#3A4D57"></path>
                <path d="M90.6421425,163.712374 C90.6421425,163.712374 90.0403425,178.456034 87.9351487,182.067268 C85.8277425,185.678502 82.2180487,188.686757 81.3153487,192.297991 C80.4126488,195.909226 78.307455,238.635523 77.4036488,244.051268 C76.502055,249.468119 73.1932613,269.326587 73.1932613,283.769311 C73.1932613,298.212034 71.7783675,318.02846 71.7783675,318.02846 C71.7783675,318.02846 59.7058613,327.392885 48.6876113,317.501821 C48.6876113,317.501821 47.0171738,259.697736 48.2207738,254.582928 C49.4243738,249.468119 51.5306738,232.6168 51.5306738,224.493736 C51.5306738,216.369566 47.6189738,188.686757 49.4243738,176.95246 C51.2297738,165.217055 63.8653613,138.437055 90.6421425,163.712374" id="Fill-21" fill="#465E69"></path>
                <path d="M84.7749244,59.0025191 L86.5803244,61.5604766 L89.8149994,62.7254979 L90.9422681,67.5769872 C90.9422681,67.5769872 94.7809556,84.2767319 95.4192619,115.268732 C96.0575681,146.260732 90.0152306,190.190774 90.0152306,190.190774 C90.0152306,190.190774 66.6987994,195.005753 47.4445181,180.262094 C47.4445181,180.262094 48.5220056,110.003455 45.1379869,92.6277106 C41.7528619,75.2508596 41.6820619,68.1998809 54.1627744,60.582434 C66.6445931,52.9649872 70.3339369,51.4791149 70.3339369,51.4791149 C70.3339369,51.4791149 74.9978869,61.107966 84.7749244,59.0025191" id="Fill-23" fill="#EF5057"></path>
                <path d="M91.99575,56.895634 L91.99575,58.550783 L89.814225,62.7262723 C89.814225,62.7262723 95.403,95.0879745 95.3786625,113.498187 C95.3521125,131.9084 91.90725,172.13206 91.90725,172.13206 L92.5721062,189.28874 C92.5721062,189.28874 105.525188,187.890272 111.542081,180.518443 C111.542081,180.518443 113.206988,120.835719 112.755638,102.631294 C112.303181,84.4279745 113.055431,60.8078043 110.348438,53.5864426 C107.641444,46.3639745 101.024963,42.0015064 98.8423313,43.5050809 C96.6597,45.0108681 93.637425,50.1256766 93.637425,50.1256766 L91.99575,56.895634 Z" id="Fill-25" fill="#F0626D"></path>
                <path d="M84.7749244,59.0025191 L82.5192806,68.330434 C82.5192806,68.330434 72.2068181,65.7713702 69.1646306,60.0546894 C66.1224431,54.3380085 66.7043306,53.2946894 66.7043306,53.2946894 L71.3704931,46.4937532 C71.3704931,46.4937532 70.6348369,56.895966 84.7749244,59.0025191" id="Fill-27" fill="#BA4E5B"></path>
                <path d="M75.4516706,122.476928 C75.4516706,122.476928 97.5611831,141.898374 99.5170331,143.401949 C101.471777,144.90663 104.932127,144.004928 108.693377,144.757268 C112.453521,145.508502 116.515671,149.721609 116.515671,151.225183 C116.515671,152.73097 110.799677,150.623311 110.046321,151.225183 C109.295177,151.827055 112.003277,154.685949 114.108471,156.491566 C116.214771,158.297183 122.983914,161.306545 121.780314,163.411991 C120.577821,165.517438 108.542927,165.217609 104.480777,163.411991 C100.419733,161.606374 96.1827956,153.0308 93.6373144,150.623311 C91.0940456,148.216928 59.1488644,133.505353 59.1488644,133.505353 C59.1488644,133.505353 49.6174144,122.72697 59.1488644,115.537694 C68.6792081,108.348417 75.4516706,122.476928 75.4516706,122.476928" id="Fill-29" fill="#EED7B9"></path>
                <path d="M44.2347338,67.3522809 C53.5305525,61.4641106 62.0608463,72.5423234 64.9946213,86.7593447 C67.92729,100.977472 72.4396838,118.804621 72.4396838,118.804621 C72.4396838,118.804621 60.7067963,115.419089 55.2905963,128.960111 C55.2905963,128.960111 44.6860838,106.617813 40.8496088,94.4321106 C37.01424,82.2464085 37.46559,71.6395149 44.2347338,67.3522809" id="Fill-31" fill="#BA4E5B"></path>
                <path d="M72.4397944,116.435081 C72.4397944,116.435081 65.8963256,113.50206 60.0298819,118.240698 C54.1634381,122.979336 53.1479006,127.492272 53.4864131,128.283336 C53.8249256,129.072187 56.4201881,135.052187 58.3373194,134.940443 C60.2555569,134.827591 59.3760881,128.458145 65.7834881,124.333549 C72.4397944,120.048528 76.0505944,123.092187 76.8404569,122.527932 C77.6292131,121.963677 72.4397944,116.435081 72.4397944,116.435081" id="Fill-33" fill="#BA4E5B"></path>
                <path d="M91.99575,56.895634 C91.99575,56.895634 95.4804375,57.2120596 97.1497688,64.0229532 C97.1497688,64.0229532 97.3300875,61.6298468 97.637625,58.2498468 C98.0391938,53.8121447 97.09335,47.4681447 97.09335,47.4681447 L93.637425,50.1256766 L91.99575,56.895634 Z" id="Fill-35" fill="#BA4E5B"></path>
                <path d="M99.8011181,13.1880851 C100.453806,14.0311489 100.912899,15.0114043 101.061137,16.2118298 C101.464918,19.5044255 101.280174,22.648766 101.310043,25.9413617 C101.322212,27.2955745 102.337749,28.6497872 102.451693,31.5828085 C102.563424,34.5169362 100.294506,49.3701277 91.9954181,50.3514894 C83.6974369,51.3328511 78.3066806,46.3640851 76.0499306,44.332766 C73.7942869,42.3014468 68.3791931,35.0811915 68.3791931,35.0811915 C68.3791931,35.0811915 63.6400181,26.7313191 62.6255869,21.9926809 C61.6100494,17.2529362 63.5271806,7.43710638 67.2497119,6.42144681 L70.9733494,5.40578723 C71.2233619,3.83804255 72.7566244,2.6 74.0774869,1.95055319 C78.3288056,-0.141617021 81.3986494,1.3907234 85.1267119,3.70195745 C88.2828431,5.65693617 91.5838931,7.33974468 94.7234306,9.30468085 C96.5642306,10.4564255 98.5410994,11.5628085 99.8011181,13.1880851" id="Fill-37" fill="#EED7B9"></path>
                <g id="Group-41" transform="translate(61.950000, 0.000000)">
                    <mask id="mask-2" fill="white">
                        <use xlink:href="#path-1"></use>
                    </mask>
                    <g id="Clip-40"></g>
                    <path d="M38.24439,8.73777021 C37.3870463,8.31402553 36.5728463,7.74091915 35.7730275,7.33266383 C33.9067838,6.38228085 32.0637713,5.40313191 30.213015,4.43062128 C25.3433025,1.8748766 19.2976463,-0.181889362 13.778565,1.34049362 C11.884665,1.86270638 9.37237125,3.21470638 9.0239025,5.40534468 L5.300265,6.42100426 C1.5766275,7.43666383 -0.34050375,17.2524936 0.67503375,21.9922383 C1.69057125,26.731983 6.42864,35.0818553 6.42864,35.0818553 C6.42864,35.0818553 7.32802125,36.2767489 8.530515,37.8157277 C6.34899,34.0097702 5.52704625,27.5219404 9.2495775,28.5376 C12.9721088,29.5510468 12.9721088,33.5019404 12.9721088,33.5019404 L14.5994025,33.5019404 C14.5994025,33.5019404 14.7775088,28.6493447 14.6071463,27.2951319 C14.4367838,25.9420255 16.8074775,23.5721532 16.6957462,22.5564936 C16.5098963,20.8681532 15.2399213,19.2937702 14.814015,17.646366 C14.5651088,16.6816 14.34054,15.9491745 15.39369,16.0907915 C16.3351088,16.2169191 17.76549,17.0555574 18.7666463,17.3542809 C19.9757775,17.7160681 21.5831588,18.2825362 22.8221588,18.2913872 C22.37634,17.5290894 21.3785025,17.1318979 21.0587963,16.2844085 C23.0644275,17.6607489 26.0645775,17.1628766 28.4153588,17.2845787 C30.938715,17.4129191 33.3359588,17.1949617 35.7918338,16.7634723 C35.0395838,16.5167489 34.32384,16.1604936 33.5660588,15.9403234 C35.0550713,15.6891745 36.6502838,15.1061106 38.0696025,14.5861106 C38.9778338,14.2530894 39.8086275,13.4321532 40.7644275,13.3204085 C40.33299,13.1024511 39.638265,12.9575149 39.3074963,12.5824511 C39.7688025,12.2372596 40.2422775,11.8610894 40.5088838,11.3366638 C39.9148275,11.1585362 39.1891275,11.0667064 38.6968463,10.7536 C39.204615,10.210366 39.9115088,10.0410894 40.1902838,9.30534468 C39.5121525,9.27436596 38.8661025,9.0442383 38.24439,8.73777021" id="Fill-39" fill="#3A4D57" mask="url(#mask-2)"></path>
                </g>
                <polygon id="Fill-42" fill="#96979B" points="88.1508675 309.914911 297.149149 429.746145 303.021124 324.553464 99.6038738 206.545549 84.20598 219.863081"></polygon>
                <polygon id="Fill-44" fill="#F8FBFD" points="412.176249 234.619243 430.148387 233.486306 461.813687 254.879328 443.582687 255.097285"></polygon>
                <path d="M457.60164,212.930264 C450.912146,222.754945 444.14079,235.062349 442.491371,236.048136 C440.843059,237.033923 435.35274,237.029498 435.35274,237.029498 L447.365509,245.014264 L448.647653,241.684051 C448.647653,241.684051 460.855121,229.142094 465.448271,225.060647 C470.039209,220.978094 462.10629,206.3152 457.60164,212.930264" id="Fill-46" fill="#EED7B9"></path>
                <path d="M429.852576,246.153064 C429.852576,246.153064 429.091476,248.241915 430.505263,248.916809 L431.920157,249.591702 C431.920157,249.591702 431.945601,250.529915 432.935694,251.084213 C433.928001,251.637404 434.484444,251.05434 434.484444,251.05434 C434.484444,251.05434 434.684676,252.351021 435.654857,252.372043 C436.625038,252.39417 437.153826,251.967106 437.153826,251.967106 C437.153826,251.967106 436.939213,254.158851 438.486857,253.925404 C440.033394,253.690851 441.537894,252.39417 441.659582,251.970426 C441.780163,251.546681 439.599744,247.640043 436.536538,246.449574 C433.473332,245.256894 432.557357,244.312043 431.763069,244.648383 C430.968782,244.984723 429.852576,246.153064 429.852576,246.153064" id="Fill-48" fill="#EED7B9"></path>
                <path d="M467.448814,185.872451 C467.448814,185.872451 461.49387,203.781472 459.305708,207.72794 C457.117545,211.674409 454.513433,215.90743 454.513433,215.90743 C454.513433,215.90743 456.002445,221.656196 460.39647,223.782664 C464.790495,225.909132 465.886789,225.889217 465.886789,225.889217 C465.886789,225.889217 472.593983,219.864962 473.620583,217.368962 C474.647183,214.872962 471.960101,197.0956 471.960101,197.0956 L467.448814,185.872451 Z" id="Fill-50" fill="#BA4E5B"></path>
                <path d="M456.890874,424.168315 C456.313412,428.971123 470.754399,427.779549 474.653931,425.359889 C478.552356,422.941336 481.584587,418.138528 484.293793,416.044145 C487.000787,413.913251 489.383649,413.913251 489.707781,411.819974 C489.779687,411.205932 489.962218,409.473336 490.106031,407.089081 C490.538574,401.277251 491.008731,391.563209 490.610481,384.739038 C489.997618,375.098017 491.404768,352.8564 489.707781,341.410868 C489.455556,339.785591 489.275237,338.0884 489.094918,336.319294 C488.264124,327.545677 488.228724,317.399038 487.976499,311.405762 C487.651262,304.1844 489.383649,275.515804 489.383649,275.515804 C489.383649,275.515804 491.189049,242.405081 491.189049,234.605081 C491.189049,231.969677 489.058412,230.525847 486.206499,229.803379 C480.609981,228.286528 472.234562,229.478102 472.234562,229.478102 C462.307074,276.417506 466.313912,302.8844 466.530737,317.6524 C466.711056,330.903549 470.429162,339.316485 471.945831,354.047974 C473.461393,368.78057 476.458224,389.54074 475.845362,397.087379 C475.447112,402.143549 467.252012,410.519974 461.763906,416.873932 C459.128818,419.979549 457.107699,422.579549 456.890874,424.168315" id="Fill-52" fill="#E8C8A1"></path>
                <path d="M469.689413,228.800996 C469.689413,228.800996 465.424819,254.445847 464.183606,271.896826 C462.942394,289.348911 462.601669,321.347719 466.192556,330.87257 C469.783444,340.395209 474.031444,391.953762 474.031444,391.953762 C474.031444,391.953762 483.030788,399.47606 491.189381,391.953762 L491.189381,298.676826 L498.745069,234.285336 L490.106363,222.653932 L469.689413,228.800996 Z" id="Fill-54" fill="#00527E"></path>
                <path d="M477.650319,266.199838 C480.682551,275.515583 489.707338,276.417285 488.480507,291.475157 C487.290182,306.495413 486.386376,324.260604 488.805744,335.092094 C488.914157,335.489285 488.986063,335.922987 489.095582,336.319072 L489.095582,336.355583 C491.440832,346.754477 494.293851,356.937626 496.026238,376.615753 C497.831638,397.088264 497.831638,417.84954 497.217669,422.941115 C496.928938,425.323157 495.665601,430.306306 494.654488,435.289455 C493.427657,441.030477 492.488451,446.771498 493.607976,448.541711 C495.701001,451.826562 508.337694,448.541711 510.143094,445.506902 C511.947388,442.510817 511.369926,435.903498 511.369926,432.292264 C511.369926,431.642817 511.478338,429.259668 511.695163,425.721455 C512.634369,409.616945 515.161044,369.429796 514.655488,360.078647 C514.078026,348.632009 510.757063,330.578051 511.658657,317.652179 C512.562463,304.689796 517.074857,294.471243 515.558188,271.904349 C514.078026,249.337455 505.629594,247.531838 505.052132,235.796434 C504.654988,228.466647 494.113532,228.648094 486.206057,229.804264 L486.170657,229.804264 C481.441438,230.525626 477.650319,231.572264 477.650319,231.572264 C477.650319,231.572264 474.653488,256.847583 477.650319,266.199838" id="Fill-56" fill="#EED7B9"></path>
                <path d="M476.318284,234.285336 C476.318284,234.285336 474.499609,256.400826 476.318284,263.772655 C478.136959,271.144485 484.604096,277.765081 485.807696,281.22474 C487.011296,284.685506 486.259046,317.78406 486.259046,322.7484 C486.259046,327.71274 488.515796,340.349847 489.869846,343.660145 C491.223896,346.970443 494.83359,365.926102 494.83359,373.297932 C494.83359,380.670868 497.24079,404.4404 496.78944,409.856145 C496.78944,409.856145 499.496434,413.015974 505.363984,413.015974 C511.230428,413.015974 513.938528,410.158187 513.938528,410.158187 C513.938528,410.158187 516.195278,367.430783 515.291471,355.997421 C514.389878,344.562953 512.432921,326.20806 512.734928,319.739038 C513.034721,313.270017 517.096871,299.429166 517.999571,285.287379 C518.902271,271.144485 515.291471,257.002698 515.291471,257.002698 L507.469178,234.285336 C507.469178,234.285336 502.956784,225.559294 502.354984,225.559294 C501.753184,225.559294 481.295303,226.010698 481.295303,226.010698 L476.318284,234.285336 Z" id="Fill-58" fill="#006BA2"></path>
                <path d="M526.890281,192.581004 C524.859206,179.379643 519.669788,175.655557 507.935794,166.629685 C496.202906,157.602706 483.002025,152.975813 476.232881,163.469855 C469.463738,173.963898 466.192556,187.954111 466.192556,190.43794 C466.192556,192.920664 470.2536,198.674962 470.140763,201.946536 C470.027925,205.219217 469.689413,228.800664 469.689413,228.800664 C469.689413,228.800664 473.187375,237.827643 489.09525,238.843302 C505.003125,239.858962 506.468906,237.490196 506.468906,237.490196 C506.468906,237.490196 508.499981,225.077685 509.966869,217.743472 C511.43265,210.40926 528.267563,201.537174 526.890281,192.581004" id="Fill-60" fill="#EED7B9"></path>
                <path d="M506.469017,237.489974 C506.469017,237.489974 505.003236,239.859847 489.095361,238.844187 C473.187486,237.828528 469.689523,228.800443 469.689523,228.800443 C469.689523,228.800443 470.028036,205.218996 470.140873,201.946315 C470.253711,198.67474 466.192667,192.920443 466.192667,190.437719 C466.192667,187.954996 469.463848,173.963677 476.232992,163.469634 C478.668954,159.693549 481.946773,157.898996 485.681473,157.539421 C485.127242,158.199932 478.872504,165.748783 479.016317,170.352443 C479.166767,175.167421 493.156404,184.644698 498.721948,184.644698 C504.218904,184.644698 507.376142,175.269209 515.129848,172.281974 C521.912267,177.913464 525.335004,182.470655 526.890392,192.580783 C528.267673,201.536953 511.432761,210.409038 509.966979,217.743251 C508.500092,225.077464 506.469017,237.489974 506.469017,237.489974" id="Fill-62" fill="#E8E4D8"></path>
                <path d="M485.592863,172.630485 C494.6088,176.319166 498.6798,171.501974 502.064925,169.019251 C505.448944,166.537634 508.157044,165.184528 508.157044,165.184528 C508.157044,165.184528 522.598031,177.143421 525.306131,181.883166 C528.014231,186.621804 526.208831,199.711421 520.792631,206.707081 C515.377538,213.70274 511.099669,212.080783 509.966869,217.743251 C508.834069,223.406826 507.254344,232.884102 508.834069,237.172443 C510.413794,241.459677 515.377538,252.06657 516.958369,262.22206 C516.958369,262.22206 507.480019,254.097889 501.613575,256.129209 C495.747131,258.159421 489.655013,269.217719 480.629119,269.443421 C471.603225,269.669123 465.05865,258.159421 464.608406,255.677804 C464.157056,253.193974 468.895125,226.114145 468.895125,213.251336 C468.895125,200.388528 464.608406,192.714655 465.285431,187.750315 C465.962456,182.785974 471.904125,168.643081 474.311325,164.882485 C476.718525,161.121889 485.592863,160.971421 485.592863,160.971421 C485.592863,160.971421 480.629119,170.599166 485.592863,172.630485" id="Fill-64" fill="#EF5057"></path>
                <path d="M485.484782,156.474417 C485.484782,156.474417 485.597619,166.065651 485.935026,168.885821 C486.274644,171.707098 494.059326,171.707098 497.444451,171.707098 C500.828469,171.707098 503.198057,169.562928 503.309788,166.290247 C503.423732,163.018672 503.235669,147.93646 503.235669,147.93646 C503.235669,147.93646 498.797394,148.6888 492.253926,151.847523 C485.710457,155.007353 485.484782,156.474417 485.484782,156.474417" id="Fill-66" fill="#E8C8A1"></path>
                <path d="M477.662156,124.466094 C476.609006,127.776391 477.662156,132.439796 477.362363,133.944477 C477.060356,135.449157 476.158763,136.953838 476.158763,139.361328 C476.158763,141.768817 476.007206,154.555285 478.56375,156.210434 C481.122506,157.865583 495.262594,155.608562 498.120038,153.35154 C500.978588,151.095626 503.235338,147.936902 503.235338,147.936902 C503.235338,147.936902 506.394788,148.236732 508.349531,145.679881 C510.305381,143.121923 515.269125,132.8912 511.960331,121.758774 C508.650431,110.625243 490.749094,110.173838 484.4313,114.687881 C478.113506,119.200817 477.662156,124.466094 477.662156,124.466094" id="Fill-68" fill="#EED7B9"></path>
                <path d="M456.890874,424.168315 C456.313412,428.971123 470.754399,427.779549 474.653931,425.359889 C478.552356,422.941336 481.584587,418.138528 484.293793,416.044145 C487.000787,413.913251 489.383649,413.913251 489.707781,411.819974 C489.779687,411.205932 489.962218,409.473336 490.106031,407.089081 C484.799349,411.025591 471.837418,420.160996 466.963281,419.510443 C463.931049,419.07674 462.378981,418.103123 461.763906,416.873932 C459.128818,419.979549 457.107699,422.579549 456.890874,424.168315" id="Fill-70" fill="#EF5057"></path>
                <path d="M493.607754,448.541157 C495.701886,451.827115 508.337473,448.541157 510.142873,445.507455 C511.947167,442.51137 511.370811,435.902945 511.370811,432.291711 C511.370811,431.64337 511.478117,429.259115 511.696048,425.720902 C511.333198,427.165838 511.009067,428.718094 510.756842,430.30686 C509.709223,437.094519 509.096361,439.802945 500.539517,440.849583 C496.784904,441.319796 495.232836,438.538349 494.654267,435.288902 C493.427436,441.029923 492.488229,446.770945 493.607754,448.541157" id="Fill-72" fill="#EF5057"></path>
                <path d="M528.206166,201.646043 C527.002566,190.362043 526.100972,182.087404 520.233422,181.034128 C514.366978,179.981957 510.757284,187.353787 512.260678,199.689957 C513.765178,212.027234 516.322828,228.125106 516.322828,228.125106 C516.322828,228.125106 512.862478,268.744851 512.412234,270.249532 C511.959778,271.754213 509.101228,272.806383 507.748284,274.762468 C506.394234,276.71966 504.438384,284.693362 505.792434,285.444596 C507.146484,286.196936 508.649878,281.381957 509.703028,281.98383 C510.757284,282.585702 509.853478,287.400681 509.101228,289.506128 C508.350084,291.612681 506.394234,293.868596 507.597834,294.622043 C508.801434,295.374383 515.721028,292.966894 517.675772,289.506128 C519.631622,286.046468 520.684772,276.869021 520.534322,274.31217 C520.383872,271.754213 528.657516,233.539745 529.108866,230.681957 C529.560216,227.823064 528.206166,201.646043 528.206166,201.646043" id="Fill-74" fill="#EED7B9"></path>
                <g id="Group-78" transform="translate(508.875000, 178.127660)">
                    <mask id="mask-4" fill="white">
                        <use xlink:href="#path-3"></use>
                    </mask>
                    <g id="Clip-77"></g>
                    <path d="M19.0178756,10.4297617 C17.5808569,3.48057021 14.5054819,-0.402834043 7.43433187,0.800910638 C0.365394375,2.00465532 -0.988655625,13.8894213 0.967194375,23.0668681 C2.92193813,32.2443149 6.08138813,49.5448255 6.08138813,50.8990383 C6.08138813,52.2532511 4.72733813,67.7503574 4.72733813,67.7503574 C4.72733813,67.7503574 9.84263813,72.4126553 17.8142756,70.9090809 C17.8142756,70.9090809 21.4250756,55.8633787 21.4250756,52.2532511 C21.4250756,48.642017 21.7259756,23.5182723 19.0178756,10.4297617" id="Fill-76" fill="#BA4E5B" mask="url(#mask-4)"></path>
                </g>
                <path d="M485.773292,163.281328 C485.773292,163.281328 481.560692,164.485072 481.109342,168.547711 C481.109342,168.547711 480.207748,165.688817 481.260898,162.981498 C482.312942,160.273072 485.681473,157.540306 485.681473,157.540306 L485.773292,163.281328 Z" id="Fill-79" fill="#D58162"></path>
                <path d="M479.681284,120.028613 C479.681284,120.028613 484.193677,134.245634 501.342765,141.692698 C501.342765,141.692698 503.486677,134.245634 506.870696,136.6144 C510.255821,138.984272 510.142984,142.144102 508.901771,144.06257 C507.660559,145.979932 506.14389,148.536783 503.237771,147.937123 C504.142684,148.124102 502.070677,160.127251 501.828409,161.036698 C500.555115,165.788613 497.977553,169.460698 496.179896,173.843081 C493.570253,180.204783 494.23179,188.315677 494.23179,195.084528 C493.862303,192.03423 497.887946,185.288613 500.18784,183.459762 C500.307315,185.003166 500.254215,186.600783 500.243153,188.164102 C500.266384,184.422315 504.110603,178.98223 506.116234,176.059166 C508.829865,172.101634 511.635315,168.947336 516.373384,171.485379 C516.901065,156.480613 519.174409,139.687932 514.805828,125.068187 C510.895234,111.979677 501.56844,110.17406 494.498396,112.129038 C487.428352,114.08623 479.681284,120.028613 479.681284,120.028613" id="Fill-81" fill="#405660"></path>
                <path d="M500.891304,111.79126 C495.475104,108.744281 489.384092,109.873898 484.983429,111.905217 C480.583873,113.934323 477.311586,117.885217 476.747398,120.592536 C476.183211,123.299855 477.142329,129.506664 477.142329,129.506664 C477.142329,129.506664 477.875773,123.752366 478.439961,121.946749 C479.004148,120.141132 479.681173,120.028281 479.681173,120.028281 C479.681173,120.028281 485.996754,115.508706 489.891861,113.822579 C497.054829,110.719174 500.891304,111.79126 500.891304,111.79126" id="Fill-83" fill="#3A4D57"></path>
                <path d="M476.747177,120.592647 C475.101077,132.687626 473.634189,143.744817 474.987133,155.028817 C476.342289,166.311711 477.018208,177.368902 477.018208,177.368902 L485.818427,164.844647 L485.484339,156.47486 C485.484339,156.47486 479.885608,157.016987 478.564746,156.210434 C477.243883,155.404987 476.116614,146.453243 476.190733,143.895285 C476.265958,141.337328 475.890939,138.253838 476.642083,136.598689 C477.394333,134.94354 477.469558,133.363626 477.469558,133.363626 L477.243883,128.023115 L476.747177,120.592647 Z" id="Fill-85" fill="#3A4D57"></path>
                <path d="M233.817221,155.089336 C233.817221,155.089336 267.391909,70.3912936 272.403221,61.3709532 L277.413428,52.3506128 L286.934921,42.8268681 L410.707703,110.986698 C410.707703,110.986698 391.16469,133.036911 387.656771,147.571464 C384.149959,162.106017 360.095659,228.761166 360.095659,228.761166 L233.817221,155.089336 Z" id="Fill-87" fill="#F8FBFD"></path>
                <polygon id="Fill-89" fill="#76787A" points="435.70143 270.704145 204.301586 138.583209 94.96758 203.865336 88.6011113 207.665762 313.957511 339.786698"></polygon>
                <path d="M97.3832981,432.461872 C97.3832981,432.461872 86.1626044,438.353362 86.1626044,443.683915 C86.1626044,449.013362 112.811061,463.322213 112.811061,463.322213 C112.811061,463.322213 127.118192,472.86034 141.424217,464.444085 C155.730242,456.02783 250.823492,397.393957 250.823492,397.393957 L212.112486,392.062298 L97.3832981,432.461872 Z" id="Fill-91" fill="#535456"></path>
                <path d="M189.206362,133.091345 L84.7310062,193.538579 C84.7310062,193.538579 72.6430125,198.71977 72.6430125,218.581557 C72.6430125,238.443345 71.7801375,300.617643 71.7801375,300.617643 L91.6384312,312.707089 L91.6384312,234.989217 C91.6384312,218.581557 98.5458562,204.765047 115.814419,196.992706 C133.082981,189.220366 212.518369,144.316706 212.518369,144.316706 L196.113787,133.091345 L189.206362,133.091345 Z" id="Fill-93" fill="#231F20"></path>
                <path d="M291.774433,329.238774 C291.774433,329.238774 288.010971,338.649668 288.638214,350.569838 C289.265458,362.491115 289.265458,425.230774 289.265458,425.230774 L312.422589,436.348817 C312.422589,436.348817 310.595064,365.000391 310.595064,355.589498 C310.595064,346.178604 310.595064,339.276987 317.494746,335.513072 C324.395533,331.749157 319.376477,326.102179 319.376477,326.102179 L291.774433,329.238774 Z" id="Fill-95" fill="#404040"></path>
                <polygon id="Fill-97" fill="#2C2C2C" points="411.592924 257.716094 292.40223 329.239328 313.957511 339.787583 430.942343 268.218987"></polygon>
                <path d="M105.867129,233.795983 C106.604998,236.195728 105.819561,238.566706 104.112617,239.091132 C102.404567,239.616664 100.423273,238.0976 99.6854044,235.697855 C98.9475356,233.299217 99.7329731,230.927132 101.439917,230.402706 C103.146861,229.877174 105.129261,231.396238 105.867129,233.795983" id="Fill-99" fill="#7EC57D"></path>
                <path d="M118.513337,241.877668 C119.278862,244.36703 118.463556,246.826519 116.692449,247.37086 C114.921343,247.916306 112.865931,246.339711 112.099299,243.850349 C111.334881,241.360987 112.149081,238.902604 113.921293,238.356051 C115.691293,237.811711 117.747812,239.388306 118.513337,241.877668" id="Fill-101" fill="#DF8380"></path>
                <path d="M314.778791,337.016979 C314.778791,337.016979 306.246285,344.443021 307.749679,356.125319 C309.254179,367.806511 307.749679,432.065234 307.749679,432.065234 C307.749679,432.065234 308.986466,439.653915 315.927079,437.517489 C322.867691,435.381064 421.302923,375.714936 421.302923,375.714936 C421.302923,375.714936 435.184148,371.442085 435.184148,352.219787 L435.184148,332.996383 L434.649829,275.327277 C434.649829,275.327277 433.390916,263.817574 424.848454,269.158085 C416.304885,274.497489 314.778791,337.016979 314.778791,337.016979" id="Fill-103" fill="#2C2C2C"></path>
                <path d="M266.817876,411.728034 L267.396444,347.481481 L116.926532,261.818672 L116.346857,301.17714 L142.390194,285.549481 L256.401426,351.533055 L259.294269,370.632545 L247.719576,378.7368 C247.719576,378.7368 251.770663,383.946757 251.192094,390.891523 C250.614632,397.836289 250.614632,403.046247 250.614632,403.046247 L266.817876,411.728034 Z" id="Fill-105" fill="#2C2C2C"></path>
                <path d="M5.89952063,391.100077 L113.140502,324.004587 L113.140502,301.476417 L21.4356956,355.005438 C21.4356956,355.005438 7.36862063,364.654204 6.38848313,371.021438 C5.41055813,377.38646 5.41055813,381.795396 5.41055813,381.795396 L5.89952063,391.100077 Z" id="Fill-107" fill="#646466"></path>
                <polygon id="Fill-109" fill="#D6D6D6" points="119.241471 412.886306 242.512014 343.429796 142.969427 285.54937 20.2785581 355.005881"></polygon>
                <path d="M5.65636688,385.049489 C5.65636688,385.049489 0.607441875,391.220894 0.607441875,394.307702 L0.607441875,397.393404 L35.1102731,418.153574 C35.1102731,418.153574 46.8907294,420.117404 51.9407606,416.750681 L56.9896856,413.383957 L65.1250481,410.017234 L25.5721856,373.827447 L5.65636688,385.049489 Z" id="Fill-111" fill="#535456"></path>
                <polygon id="Fill-113" fill="#C7C6C5" points="21.435585 394.364128 119.821035 452.244553 120.398498 412.886085 21.435585 355.00566"></polygon>
                <polygon id="Fill-115" fill="#B2A9A1" points="119.820593 452.244996 120.398055 412.886528 242.511461 343.428911 256.401536 351.533166 259.29438 370.632655"></polygon>
                <path d="M141.423774,464.444417 C141.423774,464.444417 136.094968,454.344247 138.057456,449.294715 L140.021049,444.244077 L250.263287,380.841694 L250.824156,397.393183 L141.423774,464.444417 Z" id="Fill-117" fill="#3D3D3F"></path>
            </g>
            <g id="Group-122" transform="translate(355.000000, 431.000000)">
                <mask id="mask-6" fill="white">
                    <use xlink:href="#path-5"></use>
                </mask>
                <g id="Clip-121"></g>
                <polygon id="Fill-120" mask="url(#mask-6)" points="0.597307087 51.7814 51.4816535 76.9208 140.251701 25.8093 89.3673543 0.6677"></polygon>
            </g>
            <g id="Group-125" transform="translate(414.000000, 461.000000)">
                <mask id="mask-8" fill="white">
                    <use xlink:href="#path-7"></use>
                </mask>
                <g id="Clip-124"></g>
                <path d="M0.217325397,51.8025789 L45.9152302,81.8392105 C48.8871825,83.7922105 52.706373,83.8972105 55.7798175,82.1088947 L138.970214,33.6707368 L88.422754,0.446526316 L0.217325397,51.8025789 Z" id="Fill-123" mask="url(#mask-8)"></path>
            </g>
            <g id="Group-132" transform="translate(343.000000, 430.000000)">
                <polygon id="Fill-126" fill="#EF5057" points="0.214642105 51.5016104 88.5859579 0.209077922 139.242379 25.4397273 50.8710632 76.7311558"></polygon>
                <polygon id="Fill-128" fill="#BA4E5B" points="50.8710632 76.7317078 139.242379 25.4391753 139.421432 29.522487 51.0490105 80.8150195"></polygon>
                <polygon id="Fill-130" fill="#731C20" points="51.0492316 80.8152403 139.421653 29.5227078 146.585968 33.653487 58.2135474 84.9471234"></polygon>
            </g>
            <g id="Group-135" transform="translate(404.000000, 467.000000)">
                <mask id="mask-10" fill="white">
                    <use xlink:href="#path-9"></use>
                </mask>
                <g id="Clip-134"></g>
                <path d="M1.82110976,51.2746531 C1.77560976,52.2367347 1.40717073,52.9122857 0.836756098,53.2417959 L89.5684146,2.03657143 C90.1388293,1.70706122 90.5072683,1.03040816 90.5516585,0.0672244898 L1.82110976,51.2746531 Z" id="Fill-133" mask="url(#mask-10)"></path>
            </g>
            <g id="Group-177" transform="translate(343.000000, 426.000000)">
                <g id="Group-138" transform="translate(0.000000, 54.297297)">
                    <mask id="mask-12" fill="white">
                        <use xlink:href="#path-11"></use>
                    </mask>
                    <g id="Clip-137"></g>
                    <path d="M58.4624313,30.4190081 L109.146007,63.7298459 L108.881638,68.7030351 L62.6536156,38.258873 C62.557381,40.2811703 61.0607665,41.0446568 59.2577497,40.0008189 L50.0645765,34.6852243 C48.2814704,33.6535757 46.8036603,31.1935757 46.6996827,29.0781973 L0.450643575,5.98854865 L0.215034637,0.725035135 L50.9118838,26.0519541 L51.0899732,30.1508459 L58.2600067,34.2984946 L58.4624313,30.4190081 Z" id="Fill-136" fill="#BA4E5B" mask="url(#mask-12)"></path>
                </g>
                <polygon id="Fill-139" fill="#731C20" points="109.146339 118.0267 197.589288 66.5373486 197.323813 71.5116459 108.88197 122.999889"></polygon>
                <polygon id="Fill-141" fill="#EF5057" points="58.4624313 84.7163054 146.905381 33.2280622 197.588956 66.5377919 109.146007 118.027143"></polygon>
                <polygon id="Fill-143" fill="#FEFEFE" points="141.308839 34.449973 141.105308 38.3316757 66.9438 81.4969189 65.5622246 80.5849459 63.8056659 81.6066216 63.9151743 79.5001081"></polygon>
                <path d="M119.928047,8.97102162 C99.6767397,-2.74168108 88.7259017,1.29072432 88.1496,1.50348108 L10.7625721,46.5558324 C11.3388737,46.3430757 22.2897117,42.3106703 42.5399128,54.0222649 C56.8025497,62.2721297 59.6995441,73.2767514 60.1652313,79.0666162 L137.552259,34.0142649 C137.086572,28.2255081 134.189578,17.2186703 119.928047,8.97102162" id="Fill-145" fill="#FEFEFE"></path>
                <path d="M109.294341,107.172781 L109.137268,109.230538 L109.137268,109.310322 L65.5628883,80.5848351 L63.915838,79.4999973 L63.8052235,81.6065108 L62.2367095,82.5173757 L56.5588659,79.2340514 L56.3697151,75.1484568 L11.1327989,52.6150784 L10.7556034,46.5492946 C11.3363296,46.3442946 22.2849553,42.3063486 42.5351564,54.0290243 C56.7933687,62.2777811 59.6958939,73.2779703 60.1660056,79.0611865 C60.8407542,74.9600784 64.1193687,70.1353757 77.577838,77.9287 C97.8280391,89.6358622 108.714721,106.292943 109.294341,107.172781" id="Fill-147" fill="#D6D6D6"></path>
                <path d="M62.8859061,74.5344541 L140.272934,29.4821027 C142.69318,28.0725892 147.081258,28.3130486 154.959225,32.8684811 C175.209426,44.5822919 186.102744,61.2371568 186.675727,62.1136703 L109.288699,107.166022 C108.715716,106.289508 97.8223978,89.6335351 77.5721966,77.9219405 C69.6942302,73.3654 65.306152,73.1260486 62.8859061,74.5344541" id="Fill-149" fill="#FEFEFE"></path>
                <polygon id="Fill-151" fill="#FEFEFE" points="109.288921 107.166354 186.675949 62.1140027 186.528831 64.2570838 109.141803 109.310543"></polygon>
                <g id="Group-165" transform="translate(38.715084, 5.540541)" stroke="#5977BA" stroke-linecap="round">
                    <path d="M86.6335173,23.7270324 C86.2939307,23.0488703 86.3824223,22.0393838 85.9631933,21.3446 C85.5694056,20.6930324 84.5683441,20.3539514 84.0982324,19.6935189 C83.6557743,19.0729784 82.389238,19.0751946 81.8726682,18.4513297 C81.3848581,17.8629243 81.0806682,17.1326811 80.5242771,16.5476 C79.9966458,15.9935459 79.3893721,15.5370054 78.7953721,14.9907081 C78.2323441,14.4721135 77.3983106,14.3058973 76.7722324,13.7961676 C76.1782324,13.3130324 76.0488134,12.2414919 75.3950816,11.7683297 C74.7734279,11.3195459 74.788914,9.86016757 74.1108469,9.42246486 C73.4670704,9.00692432 72.5135732,8.98143784 71.8155955,8.57697838 C71.1519084,8.19246486 70.5767128,7.64838378 69.9329363,7.29822162 C69.2570816,6.92922162 68.3909698,6.93143784 67.737238,6.5978973 C67.0503218,6.24773514 65.9873162,6.71424865 65.3247352,6.40065405 C64.6267575,6.07043784 64.4663665,4.59665405 63.7960425,4.30632973 C63.0892156,3.99716757 61.8436961,5.05097838 61.1667352,4.78281622 C60.4466346,4.50024865 60.1966458,3.02868108 59.5108358,2.78822162 C58.7774615,2.53114054 58.1845676,1.81862703 57.4899084,1.60587027 C56.7454726,1.37870811 55.8450704,1.68232973 55.1470927,1.50281622 C54.3915955,1.31000541 53.5553497,1.53495135 52.8540536,1.39200541 C52.0852827,1.23465405 51.4791151,0.163113514 50.7756067,0.0611675676 C49.9946682,-0.0529675676 49.0997966,0.906654054 48.401819,0.849032432 C48.394076,0.849032432 48.3918637,1.84743784 48.3841207,1.84743784" id="Stroke-153"></path>
                    <path d="M38.7387553,6.29383243 C39.4411575,6.35256216 40.1524089,6.7404 40.9377721,6.85564324 C41.6423866,6.9586973 42.6157944,5.89491351 43.3856715,6.05115676 C44.0880737,6.1941027 44.8314034,6.52985946 45.5869006,6.72488649 C46.2848782,6.90329189 46.9574145,7.41302162 47.7018503,7.64018378 C48.3909788,7.84961622 48.5513698,9.73229189 49.2803196,9.98715676 C49.9639173,10.2276162 51.3709341,8.57985946 52.0877162,8.86353514 C52.7668894,9.1316973 53.2712916,9.93396757 53.9781184,10.2420216 C54.6495486,10.5323459 55.1893475,11.1750486 55.8873251,11.506373 C56.5476939,11.8177514 57.058733,12.4659946 57.744543,12.8161568 C58.3982749,13.1496973 58.8219285,13.9275892 59.4999955,14.2976973 C60.1459844,14.6489676 61.3229229,14.0738595 61.9899285,14.4594811 C62.6890123,14.8639405 63.3892022,15.2562108 64.0362972,15.6728595 C64.7143642,16.1105622 65.6590123,16.1726162 66.2806659,16.6225081 C66.9355039,17.0956703 66.7375039,18.6569946 67.3326101,19.1401297 C67.9597944,19.6498595 68.6411799,20.0166432 69.2042078,20.5352378 C69.799314,21.0826432 69.9088223,22.0256432 70.4353475,22.5796973 C70.9939508,23.1658865 71.8843978,23.3564811 72.3711017,23.9459946 C72.8876715,24.5698595 73.6962637,24.9166973 74.1376156,25.5394541 C74.6066212,26.1998865 75.4683084,26.5932649 75.8609899,27.2459405 C76.2780067,27.9418324 76.3244648,28.8371838 76.660733,29.5164541" id="Stroke-155"></path>
                    <path d="M29.0772402,11.7369703 C29.7785363,11.7945919 30.4123575,12.8140514 31.1977207,12.9292946 C31.9023352,13.0323486 32.7872514,12.2766189 33.5593408,12.4350784 C34.261743,12.5780243 34.6466816,14.163727 35.4043911,14.3576459 C36.1023687,14.5371595 36.9740112,14.0728622 37.7184469,14.3000243 C38.4086816,14.511673 39.2460335,14.3255108 39.9760894,14.5803757 C40.6596872,14.8208351 41.2957207,15.2518892 42.0147151,15.5344568 C42.6927821,15.8015108 43.1839106,16.5406189 43.8929497,16.8475649 C44.5632737,17.1389973 45.0897989,17.7362676 45.7866704,18.0664838 C46.4481453,18.3778622 47.3739888,18.1462676 48.0586927,18.4964297 C48.7146369,18.8288622 49.1969162,19.4981595 49.8749832,19.8671595 C50.5220782,20.2184297 51.4965922,19.9990243 52.1635978,20.3857541 C52.8626816,20.7902135 53.3139888,21.5359703 53.9588715,21.9526189 C54.6369385,22.3903216 55.7309162,22.1764568 56.3514637,22.6263486 C57.0051955,23.0984027 56.7231285,24.720673 57.3160223,25.2038081 C57.9432067,25.7135378 58.9000223,25.7290514 59.4630503,26.2476459 C60.0559441,26.7939432 61.6001229,26.3562405 62.1277542,26.9091865 C62.6852514,27.4953757 63.3566816,28.0383486 63.8433855,28.6256459 C64.3588492,29.2495108 64.3787598,30.2922405 64.8201117,30.9138892 C65.2891173,31.5721054 65.2238547,32.5649703 65.614324,33.2165378 C66.0324469,33.9113216 67.4859218,34.0442946 67.8232961,34.7224568" id="Stroke-157"></path>
                    <path d="M56.6239073,41.1267676 C56.2821084,40.4497135 55.6504994,39.9798757 55.2301642,39.2850919 C54.8363765,38.6335243 55.2699855,37.4544973 54.7998737,36.7940649 C54.3552034,36.1735243 54.0311028,35.4244432 53.514533,34.8016865 C53.0267229,34.2132811 51.6772257,34.4005514 51.1186223,33.8143622 C50.5920972,33.2614162 50.7757173,31.9948486 50.1817173,31.4485514 C49.6186894,30.9299568 48.6264771,30.9000378 47.9992927,30.3903081 C47.4052927,29.9060649 47.7105888,28.1918216 47.0579631,27.7186595 C46.4352034,27.2698757 45.3379073,27.427227 44.6598402,26.9884162 C44.0149575,26.5717676 42.9807117,26.7667946 42.2827341,26.3623351 C41.6190469,25.9778216 41.7230246,24.2380919 41.079248,23.8857135 C40.4033933,23.5178216 39.6843989,23.2097676 39.030667,22.876227 C38.3437508,22.5260649 36.9953598,23.5510649 36.3327788,23.2363622 C35.6348011,22.9072541 35.4002983,21.5996865 34.7299743,21.3082541 C34.0220413,21.0013081 33.3804771,20.5248216 32.7035162,20.2588757 C31.9845218,19.9752 30.8828011,20.764173 30.1969911,20.5237135 C29.4636168,20.2666324 28.909438,19.5519027 28.2147788,19.3402541 C27.4714492,19.1130919 26.609762,19.4233622 25.9106782,19.2449568 C25.155181,19.0510378 24.7171475,17.5329297 24.0158514,17.3899838 C23.2470804,17.2337405 22.2493374,18.5047405 21.5458291,18.4016865 C20.7648905,18.2875514 20.0812927,17.8077405 19.3822089,17.7501189 C19.3744659,17.7490108 19.3722536,18.0648216 19.3645106,18.0648216" id="Stroke-159"></path>
                    <path d="M9.71748603,23.2130919 C10.4187821,23.2707135 11.2926369,22.5426865 12.078,22.6579297 C12.7815084,22.7609838 13.197419,24.7544703 13.9672961,24.9107135 C14.6685922,25.0536595 15.3997542,25.0370378 16.1552514,25.2309568 C16.8532291,25.4104703 18.0224246,24.0275514 18.7668603,24.2547135 C19.4559888,24.4663622 20.1041899,24.9904973 20.8331397,25.2475784 C21.5167374,25.4869297 22.3253296,25.5390108 23.044324,25.8215784 C23.7212849,26.0886324 24.5154972,26.2160649 25.2245363,26.5241189 C25.8937542,26.8155514 26.1625475,28.0843351 26.8605251,28.4145514 C27.5208939,28.7281459 28.2011732,29.0439568 28.8858771,29.3919027 C29.5407151,29.7265514 29.8559665,30.7238486 30.5318212,31.0928486 C31.1789162,31.4463351 32.2164804,31.1194432 32.8823799,31.5050649 C33.5825698,31.9095243 33.6035866,33.3434162 34.2495754,33.7600649 C34.9287486,34.1977676 36.7218101,32.9522541 37.3445698,33.4010378 C37.9983017,33.8742 38.7117654,34.3240919 39.3057654,34.807227 C39.9329497,35.3169568 40.4738547,35.9807135 41.0357765,36.4993081 C41.6308827,37.0467135 41.6098659,38.230173 42.1374972,38.784227 C42.6949944,39.3693081 44.0555531,39.2607135 44.542257,39.850227 C45.0588268,40.4740919 43.9272402,42.3434703 44.3685922,42.9651189 C44.8375978,43.6255514 45.8419777,43.8516054 46.2335531,44.5042811 C46.6505698,45.200173 47.4005363,45.6810919 47.7379106,46.3614703" id="Stroke-161"></path>
                    <path d="M0.0765452514,28.3792027 C0.778947486,28.4357162 1.59417654,28.3160405 2.38064581,28.4301757 C3.08526034,28.5332297 3.68589721,29.5826081 4.45688045,29.7399595 C5.15928268,29.8817973 5.63603128,31.0198243 6.39374078,31.2148514 C7.09171844,31.3943649 8.18790838,30.1965 8.93234413,30.4247703 C9.62257877,30.6353108 10.4720983,30.514527 11.2032603,30.7705 C11.8868581,31.0109595 12.1346346,32.5035811 12.8536291,32.7861486 C13.5316961,33.0532027 14.3104223,33.0930946 15.0194615,33.4011486 C15.6897855,33.6936892 16.8766793,32.9191216 17.5735508,33.2493378 C18.2350257,33.5618243 18.5967352,34.5613378 19.2814391,34.9115 C19.9373832,35.2439324 20.9948581,34.8849054 21.671819,35.2539054 C22.318914,35.6051757 22.2470145,37.2928243 22.9140201,37.6784459 C23.6131039,38.0829054 24.1661765,38.632527 24.8121654,39.0502838 C25.4924447,39.4868784 26.6771263,39.1234189 27.2987799,39.5744189 C27.9536179,40.046473 28.3662101,40.8088514 28.9602101,41.2919865 C29.5873944,41.8017162 30.5386793,41.9191757 31.1017073,42.4377703 C31.6968134,42.9851757 31.2477184,44.5398514 31.7742436,45.0939054 C32.3328469,45.6800946 33.1303777,45.950473 33.6170816,46.5399865 C34.1336514,47.1638514 34.9599419,47.488527 35.4024,48.1112838 C35.8702994,48.7717162 36.0439642,49.5750946 36.4344335,50.2277703 C36.8525564,50.9236622 38.1644447,51.1109324 38.5007128,51.7902027" id="Stroke-163"></path>
                </g>
                <g id="Group-176" transform="translate(97.340782, 33.243243)" stroke="#5977BA" stroke-linecap="round">
                    <path d="M0.658820112,25.1100622 C1.32914413,25.2862514 2.25056313,24.6745757 3.02375866,24.9637919 C3.68744581,25.2131162 4.60665251,24.9981432 5.34887598,25.3394405 C6.00150168,25.6386297 6.18622793,26.9683595 6.90079777,27.3429 C7.54346816,27.6786568 8.10538994,28.1673324 8.80004916,28.5684676 C9.49138994,28.9684946 10.9260603,28.0964135 11.5963844,28.5064135 C12.2777698,28.9241703 12.9602615,29.3530081 13.6184179,29.7807378 C14.2887419,30.2151162 15.0398145,30.5442243 15.6869095,30.9874676 C16.3472782,31.4395757 16.7200492,32.3072243 17.3549765,32.764873 C18.0053899,33.2347108 18.5031553,33.8995757 19.1259151,34.3716297 C19.765267,34.8569811 19.8172559,36.065927 20.4300603,36.5534946 C21.0583508,37.0532514 22.0195911,37.1031162 22.6191218,37.6039811 C23.2363508,38.1203595 24.1345408,38.2832514 24.7207978,38.7974135 C25.3269654,39.3270892 26.5459374,39.1686297 27.1189207,39.6927649 C27.715133,40.2390622 28.2184291,40.8928459 28.7781385,41.4313865 C29.3643955,41.9920892 28.9506972,43.5556297 29.497133,44.1041432 C30.0712223,44.6792514 30.8256134,45.0371703 31.355457,45.5934405 C31.9195911,46.1862784 32.6828313,46.5541703 33.1971888,47.1181973 C33.7502615,47.7265486 34.7269877,47.9271162 35.2225408,48.4977919 C35.7667642,49.1260892 34.9758704,50.8292514 35.4504067,51.4032514" id="Stroke-166"></path>
                    <path d="M10.6324894,18.2947541 C11.3050257,18.4720514 11.7120872,19.5934568 12.4841765,19.882673 C13.1478637,20.1297811 14.0150816,19.9281054 14.7584112,20.2682946 C15.4088246,20.5674838 16.1012715,20.8544838 16.8169475,21.2290243 C17.4585117,21.5658892 17.9883553,22.1554027 18.6841207,22.5587541 C19.3765676,22.9587811 19.942914,23.5294568 20.613238,23.9394568 C21.2957296,24.3572135 22.2481207,24.310673 22.9073832,24.7372946 C23.5777073,25.171673 23.7458413,26.3252135 24.3929363,26.7673486 C25.053305,27.2194568 26.6538972,26.3074838 27.2899307,26.7662405 C27.939238,27.2338622 28.3086905,28.0882135 28.9336626,28.5624838 C29.5730145,29.046727 29.7787575,30.071727 30.3904559,30.5592946 C31.0198525,31.0601595 32.1071933,30.9748351 32.706724,31.4768081 C33.3250592,31.9909703 33.5042547,33.0015649 34.0905117,33.5146189 C34.6977855,34.0454027 35.5439866,34.2792135 36.1169698,34.8033486 C36.7142883,35.3507541 37.397886,35.7818081 37.9587017,36.3203486 C38.5449587,36.8810514 38.4907575,38.0645108 39.0371933,38.6130243 C39.6112827,39.1881324 39.9364894,39.9505108 40.4674391,40.5078892 C41.030467,41.0996189 42.4961095,40.8026459 43.010467,41.3677811 C43.5635397,41.9761324 44.3666011,42.3340514 44.8621542,42.904727 C45.4074838,43.5330243 46.0910816,44.011727 46.5645117,44.5868351" id="Stroke-168"></path>
                    <path d="M20.2518603,11.9068432 C20.2596034,11.9068432 20.3049553,12.6514919 20.3126983,12.6537081 C20.9852346,12.8254649 21.7628547,12.9628703 22.5360503,13.2520865 C23.1997374,13.4991946 23.4408771,14.8521946 24.1842067,15.1946 C24.8346201,15.4926811 25.9584637,14.8854378 26.6741397,15.2610865 C27.3157039,15.5990595 27.8621397,16.1918973 28.5567989,16.5952486 C29.2492458,16.9963838 30.5135698,16.4412216 31.1838939,16.8523297 C31.8652793,17.2700865 32.0190335,18.5388703 32.6771899,18.9654919 C33.347514,19.4009784 34.5200279,19.0862757 35.1671229,19.5295189 C35.8274916,19.981627 36.0796927,21.0287892 36.7157263,21.4875459 C37.3661397,21.9551676 37.2577374,23.4234108 37.8816034,23.8954649 C38.5220615,24.3808162 39.950095,23.8178973 40.5617933,24.3043568 C41.1911899,24.8052216 41.3748101,25.8357622 41.9743408,26.3355189 C42.5915698,26.8507892 43.4543631,27.0557892 44.0417263,27.5688432 C44.6478939,28.0974108 45.2363631,28.6281946 45.8093464,29.1523297 C46.4066648,29.698627 46.4121955,30.8421946 46.9730112,31.3785189 C47.5592682,31.9392216 49.2627318,31.3308703 49.8102737,31.8782757 C50.383257,32.4544919 50.832352,33.1481676 51.3621955,33.7044378 C51.9263296,34.2961676 52.1464525,35.1881946 52.6608101,35.7533297 C53.2149888,36.3594649 52.7692123,37.8066541 53.2669777,38.3773297 C53.8123073,39.0034108 54.6043073,39.3380595 55.0788436,39.9109514" id="Stroke-170"></path>
                    <path d="M29.8960089,7.38354595 C30.566333,7.55973514 30.9756067,8.57254595 31.7476961,8.86176216 C32.4113832,9.11108649 33.9046793,7.49657297 34.6469028,7.83676216 C35.2995285,8.13595135 35.0727687,10.3288973 35.7873385,10.7023297 C36.4300089,11.0391946 37.8790592,9.96543784 38.5748246,10.366573 C39.2661654,10.7677081 39.3413832,12.1927351 40.0117073,12.6038432 C40.6930927,13.0216 41.7328693,12.8454108 42.3910257,13.2720324 C43.0613497,13.7075189 43.4319084,14.5740595 44.0790034,15.0173027 C44.7393721,15.4694108 45.8676402,15.2389243 46.5036737,15.6976811 C47.1540872,16.1664108 47.3089475,17.2933568 47.9339196,17.7665189 C48.5732715,18.2518703 49.4006682,18.4712757 50.0123665,18.9577351 C50.6417631,19.4586 51.0388693,20.2187622 51.6384,20.719627 C52.2567352,21.2360054 53.5265899,20.9711676 54.1139531,21.4842216 C54.7201207,22.0138973 55.0055061,22.8970595 55.5795955,23.4223027 C56.1758078,23.9686 55.9921877,25.3149514 56.5530034,25.8512757 C57.1392603,26.4130865 57.6945453,26.9505189 58.240981,27.4979243 C58.8161765,28.0741405 59.4732268,28.5107351 60.0041765,29.0681135 C60.5683106,29.6598432 61.5041095,29.8526541 62.018467,30.4177892 C62.5726458,31.0272486 63.0549251,31.6488973 63.5504782,32.2206811 C64.0958078,32.8478703 65.1278413,33.0107622 65.6012715,33.5847622" id="Stroke-172"></path>
                    <path d="M39.8286402,0.70242973 C40.5011765,0.874186486 41.2057911,1.42380811 41.9800927,1.71302432 C42.6459922,1.96124054 42.7897911,3.58351081 43.5342268,3.92480811 C44.1857464,4.2239973 44.7675788,4.65615946 45.4832547,5.03180811 C46.1259251,5.36978108 47.0196905,5.26783514 47.7154559,5.67118649 C48.4067966,6.07232162 48.8769084,6.79924054 49.5450201,7.21034865 C50.2252994,7.62810541 51.3480369,7.31118649 52.0061933,7.73891622 C52.6754112,8.17329459 53.458562,8.43037568 54.1045508,8.87251081 C54.7649196,9.32461892 55.4020592,9.80442973 56.0369866,10.2620784 C56.6874,10.7308081 56.9772101,11.6693757 57.5999698,12.1425378 C58.2404279,12.6278892 59.5611654,12.2223216 60.1739698,12.7098892 C60.8011542,13.2096459 61.2137464,13.9808892 61.8121709,14.4817541 C62.4305061,14.9970243 62.6771765,15.9322676 63.2645397,16.4453216 C63.8696011,16.9761054 63.9492436,18.0576189 64.5211207,18.5828622 C65.117333,19.1280514 65.6316905,19.7087 66.1914,20.2461324 C66.777657,20.8079432 68.681333,19.9912676 69.2277687,20.538673 C69.8018581,21.1148892 69.8837128,22.1620514 70.4135564,22.7183216 C70.9776905,23.3089432 71.7685844,23.6668622 72.284048,24.2297811 C72.8371207,24.8370243 73.2364391,25.5572946 73.7330983,26.1268622 C74.2795341,26.7540514 74.5582827,27.5607541 75.032819,28.1347541" id="Stroke-174"></path>
                </g>
            </g>
            <g id="Group-180" transform="translate(16.000000, 281.000000)">
                <mask id="mask-14" fill="white">
                    <use xlink:href="#path-13"></use>
                </mask>
                <g id="Clip-179"></g>
                <path d="M8.91667857,5.43046875 C-2.88325,12.1614062 -2.94635714,23.078125 8.77828571,29.8079687 C20.5018214,36.5389062 39.5778929,36.5389062 51.3800357,29.8090625 C63.1866071,23.0748438 63.2486071,12.1592187 51.5239643,5.4271875 C45.6638571,2.06171875 37.9636786,0.37953125 30.25575,0.3784375 C22.5433929,0.3784375 14.8221786,2.0628125 8.91667857,5.43046875" id="Fill-178" mask="url(#mask-14)"></path>
            </g>
            <g id="Group-197" transform="translate(7.000000, 211.000000)">
                <path d="M3.07475862,81.6028163 L3.09793103,89.6840816 C3.11006897,94.0999592 6.01655172,98.5103265 11.8217931,101.879265 C23.5062069,108.661224 42.5186207,108.661224 54.2802759,101.879265 C60.2024828,98.4651429 63.1608276,93.9820408 63.1475862,89.5077551 L63.1244138,81.4275918 C63.1365517,85.9018776 60.1793103,90.3838776 54.2571034,93.799102 C42.4954483,100.581061 23.4830345,100.581061 11.7986207,93.798 C5.99337931,90.4301633 3.088,86.0197959 3.07475862,81.6028163" id="Fill-181" fill="#76787A"></path>
                <path d="M11.9367724,69.2360449 C0.175117241,76.0180041 0.113324138,87.0174735 11.7988414,93.7983306 C23.4832552,100.58029 42.495669,100.58029 54.2573241,93.7994327 C66.0244966,87.0141673 66.0873931,76.014698 54.4018759,69.2327388 C42.7174621,62.4518816 23.7050483,62.4507796 11.9367724,69.2360449" id="Fill-183" fill="#96979B"></path>
                <path d="M32.9863724,76.3444286 C32.5096828,76.330102 31.9756138,76.168102 31.4139586,75.844102 C30.8512,75.520102 30.3193379,75.0671633 29.8426483,74.5315714 L29.8227862,81.593449 L32.9665103,83.4063061 L32.9863724,76.3444286 Z" id="Fill-185" fill="#BA4E5B"></path>
                <polygon id="Fill-187" fill="#601F28" points="32.9664 83.4065265 36.092469 81.5914653 36.1134345 74.5295878 32.9862621 76.344649"></polygon>
                <path d="M34.4103724,63.9217837 C35.0768552,63.5338653 36.0015448,63.5889673 37.0200276,64.1763551 C39.0525793,65.3489265 40.6900966,68.1800694 40.6834759,70.5053755 C40.6801655,71.6636204 40.2718897,72.4791306 39.6120276,72.8604367 L31.0139586,77.8515796 C31.6738207,77.4691714 32.0820966,76.6547633 32.0854069,75.4954163 C32.0909241,73.1723143 30.4545103,70.3389673 28.4219586,69.167498 C27.4023724,68.5801102 26.4787862,68.5250082 25.8123034,68.9118245 L34.4103724,63.9217837 Z" id="Fill-189" fill="#601F28"></path>
                <path d="M28.4217379,69.1671673 C26.3969103,67.9990041 24.7483586,68.9368408 24.7417379,71.2610449 C24.7351172,73.5940653 26.3726345,76.4263102 28.3985655,77.5933714 C30.4300138,78.7659429 32.0785655,77.8270041 32.0851862,75.4950857 C32.0918069,73.1719837 30.4542897,70.3386367 28.4217379,69.1671673" id="Fill-191" fill="#EE4526"></path>
                <path d="M3.18896552,2.31825306 C2.624,3.0511102 1.66510345,3.24947755 0.549517241,2.77890612 L28.2957241,67.6273959 C28.8617931,66.8967429 29.8195862,66.6994776 30.9329655,67.1656408 L3.18896552,2.31825306 Z" id="Fill-193" fill="#601F28"></path>
                <polygon id="Fill-195" fill="#BA4E5B" points="30.9325241 67.1654204 34.0596966 65.3514612 6.31569655 0.504073469 3.18852414 2.31803265"></polygon>
            </g>
            <g id="Group-200" transform="translate(56.000000, 186.000000)">
                <mask id="mask-16" fill="white">
                    <use xlink:href="#path-15"></use>
                </mask>
                <g id="Clip-199"></g>
                <path d="M0.579157895,38.8667143 C0.579157895,42.8796667 2.72226316,45.0559048 6.40389474,45.0559048 C19.1122105,45.0559048 41.9027368,21.0351429 41.9027368,7.1442381 C41.9027368,3.13019048 39.7596316,0.955047619 36.078,0.955047619 C23.4061579,0.955047619 0.579157895,24.9648571 0.579157895,38.8667143 M2.56642105,37.3399524 C2.56642105,24.8137143 23.1408947,3.07542857 34.65,3.07542857 C37.9779474,3.07542857 39.9143684,5.04247619 39.9143684,8.66990476 C39.9143684,9.91409524 39.6866842,11.3532381 39.2103158,12.9741905 C35.2811053,26.335 17.7173684,42.9333333 7.83078947,42.9333333 C4.50394737,42.9333333 2.56642105,40.967381 2.56642105,37.3399524" id="Fill-198" mask="url(#mask-16)"></path>
            </g>
            <g id="Group-215" transform="translate(0.000000, 167.000000)">
                <path d="M9.86115227,33.6858789 C10.5059818,33.2979316 11.3988227,33.3531947 12.3831523,33.9389842 C14.3407886,35.1061421 15.9313682,37.9411421 15.9247545,40.2699316 C15.92255,41.4216158 15.5268341,42.2306684 14.8897205,42.6130895 L6.57637955,47.5989316 C7.21239091,47.2165105 7.60810682,46.4074579 7.61031136,45.2557737 C7.616925,42.9258789 6.02634545,40.0919842 4.06870909,38.9248263 C3.08437955,38.3390368 2.19153864,38.2837737 1.54781136,38.6717211 L9.86115227,33.6858789 Z" id="Fill-201" fill="#76787A"></path>
                <path d="M3.67641023,38.9477053 C1.65373977,37.7750211 0.00694431818,38.7167053 0.000330681818,41.0554421 C-0.00628295455,43.3875474 1.62948977,46.2280737 3.65216023,47.3985474 C5.67483068,48.5701263 7.32823977,47.6328632 7.33485341,45.3029684 C7.34256932,42.9642316 5.69908068,40.1192842 3.67641023,38.9477053" id="Fill-203" fill="#96979B"></path>
                <path d="M8.75447045,39.1279737 C9.63518636,40.3393421 10.2370273,41.8237105 10.3285159,43.1776579 L50.3983341,39.4418684 L50.4093568,35.5380789 L47.2689818,33.7199211 L47.2634705,35.5458158 L8.75447045,39.1279737 Z" id="Fill-205" fill="#BA4E5B"></path>
                <polygon id="Fill-207" fill="#601F28" points="47.2635807 35.5455947 50.3874216 33.7263316 11.8773193 37.3084895 8.75458068 39.1277526"></polygon>
                <path d="M92.1967364,19.7523789 C93.8754977,19.7523789 95.2334977,20.2110632 96.2134182,21.0974842 C89.0728955,14.9102211 80.9094636,11.0252211 71.4563727,11.0252211 C68.4118955,11.0252211 65.9428045,11.4618 63.4406455,12.1592211 C56.7046568,14.1354316 47.6384636,24.1535368 46.3565205,31.1609053 C45.9486795,33.7759579 45.9178159,34.3893789 45.9178159,36.2384842 C45.9178159,46.6003263 51.1205432,56.1475895 58.5851341,62.9129053 C57.4233386,61.8618 56.7939409,60.2094316 56.7939409,58.0110632 C56.7939409,44.0261684 79.49635,19.7523789 92.1967364,19.7523789" id="Fill-209" fill="#F0626D"></path>
                <path d="M33.158458,15.7210421 C33.158458,11.9543053 34.4778784,8.7402 36.7066739,5.95383158 C39.2176511,2.83256842 43.5451739,0.497147368 48.3973784,0.497147368 C52.599242,0.497147368 55.710958,2.02793684 58.588992,4.42635789 L66.3831625,11.4757263 C65.3834011,11.6569895 64.4134011,11.8879895 63.4400943,12.1587789 C56.7041057,14.1349895 47.6390148,24.1542 46.3559693,31.1615684 C46.136617,32.5707789 46.0285943,33.3975158 45.9734807,34.1513053 L38.1815148,27.1052526 C38.0779011,27.0113053 37.984208,26.9107263 37.899333,26.8035158 C37.984208,26.9107263 38.0779011,27.0113053 38.1815148,27.1052526 C34.977208,24.1564105 33.158458,20.1940421 33.158458,15.7210421" id="Fill-211" fill="#EF5057"></path>
                <path d="M95.319475,31.8822 C91.4008955,45.3653053 73.8857818,62.1155684 64.02485,62.1155684 C60.7070091,62.1155684 58.7758273,60.1327263 58.7758273,56.4709895 C58.7758273,43.8312 79.2946341,21.8939368 90.7726,21.8939368 C94.0915432,21.8939368 96.022725,23.8778842 96.022725,27.5385158 C96.022725,28.7940947 95.7956568,30.2464105 95.319475,31.8822" id="Fill-213" fill="#FEFEFE"></path>
            </g>
            <g id="Group-218" transform="translate(63.000000, 194.000000)">
                <mask id="mask-18" fill="white">
                    <use xlink:href="#path-17"></use>
                </mask>
                <g id="Clip-217"></g>
                <path d="M0.12544,17.9911538 C1.57472,24.1547692 7.11312,28.7501538 13.74352,28.7501538 C21.476,28.7501538 27.7424,22.5073462 27.7424,14.8089615 C27.7424,7.70284615 22.40224,1.85153846 15.50304,0.988230769 C9.66672,5.36946154 3.88416,11.7238077 0.12544,17.9911538" id="Fill-216" mask="url(#mask-18)"></path>
            </g>
        </g>
    </g>
</svg>