<?xml version="1.0" encoding="UTF-8" standalone="no"?>
<!-- Created with Inkscape (http://www.inkscape.org/) -->
<svg
   xmlns:dc="http://purl.org/dc/elements/1.1/"
   xmlns:cc="http://web.resource.org/cc/"
   xmlns:rdf="http://www.w3.org/1999/02/22-rdf-syntax-ns#"
   xmlns:svg="http://www.w3.org/2000/svg"
   xmlns="http://www.w3.org/2000/svg"
   xmlns:sodipodi="http://sodipodi.sourceforge.net/DTD/sodipodi-0.dtd"
   xmlns:inkscape="http://www.inkscape.org/namespaces/inkscape"
   width="209.61418"
   height="60.663609"
   id="svg145868"
   sodipodi:version="0.32"
   inkscape:version="0.44"
   version="1.0"
   sodipodi:docbase="C:\Dokumente und Einstellungen\Andreas\Eigene Dateien\Eigene Bilder\sonstiges\Logos\Vektor"
   sodipodi:docname="Seagate-Logo.svg">
  <defs
     id="defs145870" />
  <sodipodi:namedview
     id="base"
     pagecolor="#ffffff"
     bordercolor="#666666"
     borderopacity="1.0"
     inkscape:pageopacity="0.0"
     inkscape:pageshadow="2"
     inkscape:zoom="2.5034934"
     inkscape:cx="122.51601"
     inkscape:cy="14.667184"
     inkscape:document-units="px"
     inkscape:current-layer="layer1"
     inkscape:window-width="904"
     inkscape:window-height="574"
     inkscape:window-x="48"
     inkscape:window-y="270" />
  <metadata
     id="metadata145873">
    <rdf:RDF>
      <cc:Work
         rdf:about="">
        <dc:format>image/svg+xml</dc:format>
        <dc:type
           rdf:resource="http://purl.org/dc/dcmitype/StillImage" />
      </cc:Work>
    </rdf:RDF>
  </metadata>
  <g
     inkscape:label="Ebene 1"
     inkscape:groupmode="layer"
     id="layer1"
     transform="translate(-527.0828,-548.9303)">
    <g
       id="g146021">
      <path
         d="M 527.08278,590.11476 L 532.12897,589.74372 C 532.42559,591.41336 533.03796,592.52646 533.96547,593.45403 C 534.9115,594.1961 536.15445,594.56713 537.73137,594.56713 C 539.40119,594.56713 540.66266,594.1961 541.51609,593.45403 C 542.36921,592.89749 542.77756,591.96989 542.77756,591.04232 C 542.77756,590.48579 542.61058,589.92922 542.2581,589.55819 C 541.90561,589.00165 541.27472,588.63062 540.38425,588.44512 C 539.77219,588.25959 538.39929,587.88855 536.22883,587.33202 C 533.46452,586.58995 531.5166,585.66238 530.38508,584.73478 C 528.80816,583.25068 528.02911,581.58104 528.02911,579.54037 C 528.02911,578.24174 528.40012,577.12867 529.14212,575.83003 C 529.88413,574.71696 530.94158,573.97489 532.333,573.23283 C 533.74293,572.67629 535.41244,572.49076 537.3974,572.49076 C 540.6071,572.49076 543.03714,573.04729 544.66961,574.53143 C 546.28388,576.01556 547.137,577.8707 547.2299,580.28241 L 542.07259,580.46794 C 541.85005,579.16934 541.36763,578.05623 540.62562,577.4997 C 539.90213,576.94313 538.80734,576.75763 537.34184,576.75763 C 535.82079,576.75763 534.6334,576.94313 533.77997,577.6852 C 533.24198,578.05623 532.96358,578.61277 532.96358,579.16934 C 532.96358,579.9114 533.22346,580.28241 533.72441,580.83897 C 534.37351,581.39551 535.96895,581.95207 538.4922,582.50861 C 541.01514,583.06514 542.87016,583.62171 544.09459,584.36378 C 545.3005,584.92031 546.24653,585.84788 546.91446,586.96098 C 547.60091,588.07409 547.95339,589.37269 547.95339,591.04232 C 547.95339,592.52646 547.54535,593.82506 546.72896,595.12367 C 545.91257,596.42227 544.744,597.34987 543.25968,598.09194 C 541.75715,598.64847 539.90213,599.01951 537.67581,599.01951 C 534.42938,599.01951 531.92495,598.27744 530.19957,596.7933 C 528.45568,595.3092 527.41674,593.083 527.08278,590.11476 M 563.0358,592.52646 L 567.93353,593.45403 C 567.30264,595.12367 566.31958,596.6078 564.9652,597.53537 C 563.59231,598.46297 561.90427,598.83397 559.86345,598.83397 C 556.63554,598.83397 554.24223,597.9064 552.70266,595.68023 C 551.47823,594.01056 550.86586,591.96989 550.86586,589.37269 C 550.86586,586.21892 551.66373,583.80721 553.27768,582.13758 C 554.89164,580.28241 556.91364,579.54037 559.38102,579.54037 C 562.14533,579.54037 564.31579,580.28241 565.91123,582.13758 C 567.50666,583.99274 568.26719,586.77548 568.21163,590.67129 L 555.91205,590.67129 C 555.94909,591.96989 556.33861,593.26853 557.09945,594.01056 C 557.85997,594.75263 558.78748,595.12367 559.91901,595.12367 C 560.67984,595.12367 561.32894,594.93816 561.84841,594.56713 C 562.38639,594.1961 562.77622,593.45403 563.0358,592.52646 z M 563.31421,587.51752 C 563.27686,586.21892 562.90586,585.10582 562.21941,584.36378 C 561.51444,583.62171 560.66132,583.25068 559.67795,583.25068 C 558.60198,583.25068 557.71151,583.62171 557.02506,584.36378 C 556.32009,585.10582 555.98613,586.21892 556.00465,587.51752 L 563.31421,587.51752 M 575.87337,585.66238 L 571.43954,584.73478 C 571.94049,582.87964 572.79392,581.58104 574.01835,580.83897 C 575.24279,579.9114 577.06076,579.54037 579.47259,579.54037 C 581.66157,579.54037 583.29404,579.72587 584.37001,580.28241 C 585.44598,580.83897 586.20682,581.39551 586.63338,582.13758 C 587.07877,583.06514 587.30131,584.54928 587.30131,586.58995 L 587.22692,592.34093 C 587.22692,594.01056 587.30131,595.12367 587.44977,596.05127 C 587.61675,596.7933 587.91337,597.53537 588.35876,598.46297 L 583.49806,598.46297 C 583.36843,598.09194 583.21997,597.7209 583.03446,596.97883 C 582.94156,596.7933 582.886,596.6078 582.84896,596.42227 C 582.01405,597.34987 581.12358,597.9064 580.15904,598.27744 C 579.2127,598.64847 578.19229,598.83397 577.11632,598.83397 C 575.20575,598.83397 573.68439,598.27744 572.5899,597.34987 C 571.49541,596.23677 570.9389,594.93816 570.9389,593.45403 C 570.9389,592.34093 571.19848,591.41336 571.69943,590.67129 C 572.18186,589.74372 572.88682,589.18719 573.79581,588.63062 C 574.68628,588.25959 575.98479,587.88855 577.69165,587.51752 C 579.97354,587.14649 581.55014,586.77548 582.44061,586.40445 L 582.44061,585.84788 C 582.44061,584.92031 582.19955,584.17825 581.73565,583.80721 C 581.27205,583.43618 580.4001,583.25068 579.10159,583.25068 C 578.22964,583.25068 577.54319,583.43618 577.06076,583.80721 C 576.57833,584.17825 576.17029,584.73478 575.87337,585.66238 z M 582.44061,589.55819 C 581.81003,589.74372 580.82666,589.92922 579.47259,590.30026 C 578.11821,590.67129 577.24626,590.85682 576.8197,591.22786 C 576.18881,591.59886 575.87337,592.15543 575.87337,592.89749 C 575.87337,593.63956 576.13325,594.1961 576.6342,594.75263 C 577.13484,595.12367 577.78425,595.4947 578.58212,595.4947 C 579.45407,595.4947 580.28867,595.12367 581.08654,594.56713 C 581.68009,594.1961 582.06961,593.63956 582.25511,592.89749 C 582.36654,592.52646 582.44061,591.78439 582.44061,590.48579 L 582.44061,589.55819 M 591.69809,599.76157 L 597.319,600.31811 C 597.41191,601.06018 597.63445,601.43121 597.96841,601.80224 C 598.43232,602.17328 599.17433,602.17328 600.17591,602.17328 C 601.45621,602.17328 602.42076,601.98774 603.05165,601.61671 C 603.47821,601.43121 603.81217,601.06018 604.03471,600.50364 C 604.18317,599.94707 604.25725,599.20501 604.25725,598.09194 L 604.2946,595.4947 C 602.81028,597.53537 600.95526,598.46297 598.71042,598.46297 C 596.22451,598.46297 594.23956,597.34987 592.77406,595.3092 C 591.62371,593.63956 591.0672,591.59886 591.0672,589.00165 C 591.0672,586.03342 591.80921,583.62171 593.31205,581.95207 C 594.81458,580.28241 596.6699,579.54037 598.91444,579.54037 C 601.21484,579.54037 603.1072,580.46794 604.60974,582.50861 L 604.60974,579.9114 L 609.19202,579.9114 L 609.19202,596.6078 C 609.19202,598.83397 609.00652,600.31811 608.65404,601.43121 C 608.28303,602.54431 607.78209,603.47188 607.13299,604.02841 C 606.48358,604.58498 605.61163,605.14152 604.51714,605.51255 C 603.42265,605.88358 602.03123,606.06909 600.36141,606.06909 C 597.22641,606.06909 594.98156,605.51255 593.66453,604.39945 C 592.34719,603.28635 591.67957,601.98774 591.67957,600.31811 C 591.67957,600.13261 591.69809,599.94707 591.69809,599.76157 z M 596.1134,588.81615 C 596.1134,590.67129 596.4844,592.15543 597.24493,593.083 C 598.00545,594.01056 598.95179,594.56713 600.06479,594.56713 C 601.27071,594.56713 602.27229,594.01056 603.1072,593.083 C 603.9236,592.15543 604.33164,590.67129 604.33164,588.81615 C 604.33164,586.96098 603.94211,585.47685 603.14424,584.54928 C 602.3652,583.62171 601.36331,583.25068 600.15739,583.25068 C 598.97031,583.25068 598.00545,583.62171 597.24493,584.54928 C 596.4844,585.47685 596.1134,586.96098 596.1134,588.81615 M 617.68867,585.66238 L 613.25484,584.73478 C 613.75579,582.87964 614.60922,581.58104 615.83365,580.83897 C 617.05809,579.9114 618.87606,579.54037 621.28758,579.54037 C 623.47687,579.54037 625.10934,579.72587 626.18531,580.28241 C 627.26128,580.83897 628.02181,581.39551 628.44868,582.13758 C 628.89376,583.06514 629.09778,584.54928 629.09778,586.58995 L 629.0237,592.34093 C 629.0237,594.01056 629.11661,595.12367 629.26476,596.05127 C 629.43174,596.7933 629.72867,597.53537 630.17406,598.46297 L 625.31336,598.46297 C 625.18342,598.09194 625.03527,597.7209 624.84977,596.97883 C 624.75686,596.7933 624.7013,596.6078 624.66396,596.42227 C 623.82935,597.34987 622.93888,597.9064 621.97403,598.27744 C 621.028,598.64847 620.00759,598.83397 618.9131,598.83397 C 617.00222,598.83397 615.49969,598.27744 614.4052,597.34987 C 613.3104,596.23677 612.7539,594.93816 612.7539,593.45403 C 612.7539,592.34093 612.99527,591.41336 613.49621,590.67129 C 613.99685,589.74372 614.70182,589.18719 615.59229,588.63062 C 616.50127,588.25959 617.80009,587.88855 619.48813,587.51752 C 621.78853,587.14649 623.36545,586.77548 624.25591,586.40445 L 624.25591,585.84788 C 624.25591,584.92031 624.01485,584.17825 623.55095,583.80721 C 623.08735,583.43618 622.2154,583.25068 620.91658,583.25068 C 620.04463,583.25068 619.35849,583.43618 618.87606,583.80721 C 618.39364,584.17825 617.98559,584.73478 617.68867,585.66238 z M 624.25591,589.55819 C 623.62533,589.74372 622.64196,589.92922 621.28758,590.30026 C 619.93351,590.67129 619.06156,590.85682 618.63469,591.22786 C 618.00411,591.59886 617.68867,592.15543 617.68867,592.89749 C 617.68867,593.63956 617.94856,594.1961 618.44919,594.75263 C 618.95014,595.12367 619.59955,595.4947 620.37859,595.4947 C 621.26906,595.4947 622.10397,595.12367 622.90185,594.56713 C 623.49539,594.1961 623.86639,593.63956 624.05189,592.89749 C 624.18184,592.52646 624.25591,591.78439 624.25591,590.48579 L 624.25591,589.55819 M 642.51068,579.9114 L 642.51068,583.80721 L 639.1343,583.80721 L 639.1343,591.22786 C 639.1343,592.89749 639.15282,593.63956 639.22721,594.01056 C 639.30129,594.1961 639.43123,594.3816 639.67229,594.56713 C 639.89483,594.75263 640.17324,594.75263 640.5072,594.75263 C 640.95228,594.75263 641.62021,594.75263 642.49216,594.3816 L 642.91872,598.09194 C 641.76867,598.64847 640.47016,598.83397 639.02288,598.83397 C 638.13241,598.83397 637.33485,598.83397 636.62988,598.46297 C 635.90639,598.09194 635.38693,597.7209 635.05296,597.34987 C 634.719,596.7933 634.47794,596.23677 634.348,595.3092 C 634.2554,594.75263 634.19953,593.63956 634.19953,591.96989 L 634.19953,583.80721 L 631.955,583.80721 L 631.955,579.9114 L 634.19953,579.9114 L 634.19953,573.60386 L 639.1343,573.23283 L 639.1343,579.9114 L 642.51068,579.9114 M 656.64706,592.52646 L 661.52597,593.45403 C 660.9139,595.12367 659.91201,596.6078 658.55794,597.53537 C 657.20357,598.46297 655.49671,598.83397 653.45619,598.83397 C 650.22828,598.83397 647.85349,597.9064 646.29509,595.68023 C 645.07097,594.01056 644.4586,591.96989 644.4586,589.37269 C 644.4586,586.21892 645.25647,583.80721 646.87042,582.13758 C 648.48438,580.28241 650.50638,579.54037 652.97376,579.54037 C 655.73807,579.54037 657.90853,580.28241 659.50397,582.13758 C 661.09941,583.99274 661.87845,586.77548 661.80437,590.67129 L 649.50479,590.67129 C 649.54183,591.96989 649.93135,593.26853 650.69188,594.01056 C 651.45271,594.75263 652.39874,595.12367 653.51175,595.12367 C 654.2911,595.12367 654.9402,594.93816 655.45967,594.56713 C 655.97913,594.1961 656.36866,593.45403 656.64706,592.52646 z M 656.90664,587.51752 C 656.8696,586.21892 656.4986,585.10582 655.81215,584.36378 C 655.10718,583.62171 654.27227,583.25068 653.27069,583.25068 C 652.19472,583.25068 651.32277,583.62171 650.6178,584.36378 C 649.93135,585.10582 649.57887,586.21892 649.59739,587.51752 L 656.90664,587.51752"
         style="fill:black;fill-rule:nonzero;stroke:none;stroke-width:0.19599999;stroke-linecap:butt;stroke-linejoin:miter;stroke-miterlimit:4"
         id="path487" />
      <path
         d="M 679.39121,601.61671 C 675.19844,596.42227 672.6755,589.92922 672.6755,582.69411 C 672.6755,565.99771 686.21834,552.45506 702.85884,552.45506 C 719.51817,552.45506 733.04249,565.99771 733.04249,582.69411 C 733.04249,586.40445 732.39308,589.92922 731.18717,593.083 L 734.86047,593.63956 C 736.04755,590.30026 736.69696,586.58995 736.69696,582.69411 C 736.69696,564.14255 721.52195,548.93028 702.85884,548.93028 C 684.21455,548.93028 669.03955,564.14255 669.03955,582.69411 C 669.03955,590.85682 671.93349,598.27744 676.73832,604.21395 L 679.39121,601.61671 M 694.19552,606.25462 C 684.58556,602.72981 677.70318,593.45403 677.70318,582.69411 C 677.70318,568.78045 688.98234,557.464 702.85884,557.464 C 715.0473,557.464 725.23229,566.18322 727.53239,577.6852 L 731.15013,577.31417 C 728.6457,563.95704 716.92115,553.93919 702.85884,553.93919 C 686.97887,553.93919 674.06691,566.73978 674.06691,582.69411 C 674.06691,594.93816 681.71013,605.32705 692.45162,609.59389 C 693.04516,608.48079 693.73161,607.18219 694.19552,606.25462 M 706.75468,601.98774 C 705.49321,602.17328 704.1947,602.35878 702.85884,602.35878 C 692.06179,602.35878 683.26853,593.45403 683.26853,582.69411 C 683.26853,571.93422 692.06179,563.02947 702.85884,563.02947 C 708.57296,563.02947 713.69293,565.62668 717.27363,569.52252 L 720.81699,568.03838 C 716.55014,562.84394 710.07549,559.50467 702.85884,559.50467 C 690.05831,559.50467 679.63227,569.89355 679.63227,582.69411 C 679.63227,595.4947 690.05831,605.88358 702.85884,605.88358 C 704.1947,605.88358 705.49321,605.88358 706.75468,605.51255 L 706.75468,601.98774 M 712.43146,593.45403 C 709.87147,595.86573 706.53214,597.16434 702.85884,597.16434 C 694.88166,597.16434 688.3888,590.67129 688.3888,582.69411 C 688.3888,574.71696 694.88166,568.22392 702.85884,568.22392 C 704.32464,568.22392 705.71575,568.40942 707.05161,568.78045 L 708.01615,565.25565 C 706.38368,564.88461 704.65861,564.51358 702.85884,564.51358 C 692.87818,564.51358 684.75254,572.67629 684.75254,582.69411 C 684.75254,592.71196 692.87818,600.87464 702.85884,600.87464 C 707.42261,600.87464 711.57833,599.20501 714.76921,596.23677 L 712.43146,593.45403 M 711.67093,586.58995 C 710.18692,589.92922 706.79203,592.34093 702.85884,592.34093 C 697.55307,592.34093 693.23067,588.07409 693.23067,582.69411 C 693.23067,578.05623 696.57,574.1604 700.98531,573.23283 L 700.65134,569.70802 C 694.38102,570.63562 689.59471,576.20107 689.59471,582.69411 C 689.59471,589.92922 695.54959,596.05127 702.85884,596.05127 C 708.81402,596.05127 713.85991,591.96989 715.52973,586.58995 L 711.67093,586.58995"
         style="fill:#00b4a9;fill-rule:nonzero;stroke:none;stroke-width:0.51600999;stroke-linecap:butt;stroke-linejoin:miter;stroke-miterlimit:3.86400008"
         id="path467" />
    </g>
  </g>
</svg>
