<?xml version="1.0" encoding="UTF-8"?>
<svg width="799px" height="840px" viewBox="0 0 799 840" version="1.1" xmlns="http://www.w3.org/2000/svg" xmlns:xlink="http://www.w3.org/1999/xlink">
    <!-- Generator: Sketch 48.2 (47327) - http://www.bohemiancoding.com/sketch -->
    <title>Group 2</title>
    <desc>Created with Sketch.</desc>
    <defs></defs>
    <g id="Desktop" stroke="none" stroke-width="1" fill="none" fill-rule="evenodd" transform="translate(-641.000000, 0.000000)">
        <g id="Group-2" transform="translate(641.000000, -253.000000)">
            <path d="M165.143498,47.5576592 C36.0395223,114.961803 -12.2932011,218.586383 20.1453276,358.431399 C68.8031206,568.198922 91.2414805,657.47745 20.1453276,806.260131 C-50.9508253,955.042811 231.62024,1134.94676 483.557768,1042.91201 C735.495297,950.877253 669.497604,809.605065 811.93799,719.104521 C954.378375,628.603977 1048.84532,209.497081 906.38783,74.9058425 C811.416167,-14.82165 564.334723,-23.9377111 165.143498,47.5576592 Z" id="Path-3" fill="#FFD0D0"></path>
            <path d="M1000,508.817641 L863.990136,312 L66.8968641,644.705623 C58.2765418,716.375507 41.3978422,773.274564 16.2607653,815.402795 C-21.4448502,878.595142 -3.71859611,1046.7219 179.090751,1080.18253 C361.900098,1113.64316 514.32632,1080.18253 603.226895,996.25491 C692.127469,912.327292 691.849487,815.402795 799.261067,776.888015 C870.868787,751.211495 937.781765,661.854703 1000,508.817641 Z" id="Path-6" fill="#E38C8C"></path>
        </g>
    </g>
</svg>